<?xml version="1.0" standalone="no"?>
<!DOCTYPE svg PUBLIC "-//W3C//DTD SVG 1.1//EN" "http://www.w3.org/Graphics/SVG/1.1/DTD/svg11.dtd" >
<svg>
<metadata>
Created by FontForge 20090622 at Mon Jan  4 02:04:23 2016
 By deploy user
Copyright (c) 1991 Adobe Systems Incorporated. All Rights Reserved.Plantin is a trademark of The Monotype Corporation Plc. registered in the US Patent and TM Office and elsewhere.
</metadata>
<defs>
<font id="Plantin-Light" horiz-adv-x="1492" >
  <font-face 
    font-family="Plantin-Light"
    font-weight="300"
    font-stretch="normal"
    units-per-em="2048"
    panose-1="2 2 4 0 0 0 0 0 0 0"
    ascent="1638"
    descent="-410"
    x-height="922"
    cap-height="1397"
    bbox="-143 -512 2238 1864"
    underline-thickness="102"
    underline-position="-102"
    unicode-range="U+0020-U+2122"
  />
<missing-glyph horiz-adv-x="1028" 
d="M18 20h983v984h-983v-984zM-2 0v1024h1024v-1024h-1024z" />
    <glyph glyph-name=".notdef" horiz-adv-x="1028" 
d="M18 20h983v984h-983v-984zM-2 0v1024h1024v-1024h-1024z" />
    <glyph glyph-name=".null" horiz-adv-x="0" 
 />
    <glyph glyph-name="nonmarkingreturn" horiz-adv-x="681" 
 />
    <glyph glyph-name="space" unicode=" " horiz-adv-x="552" 
 />
    <glyph glyph-name="exclam" unicode="!" horiz-adv-x="555" 
d="M166 90q0 47 32.5 80t80 33t80 -33t32.5 -80t-32.5 -80t-80 -33t-80 33t-32.5 80zM172 1355q0 38 19.5 55t68.5 17h35q86 0 86 -73q0 -24 -6 -80l-80 -889h-55l-66 893q-2 39 -2 77z" />
    <glyph glyph-name="quotedbl" unicode="&#x22;" horiz-adv-x="659" 
d="M6 1242q0 54 33 89t83 35t85 -35t35 -92t-23 -160l-74 -327h-45l-71 327q-23 109 -23 163zM420 1239q0 57 33 92t83 35t84.5 -35t34.5 -92t-22 -160l-74 -327h-45l-72 327q-22 103 -22 160z" />
    <glyph glyph-name="numbersign" unicode="#" horiz-adv-x="1368" 
d="M942 883h-436l-82 -387h436zM1274 987v-104h-227l-82 -387h309v-105h-330l-86 -411h-104l86 411h-437l-86 -411h-104l86 411h-207v105h227l82 387h-309v104h332l84 410h104l-84 -410h435l86 410h104l-84 -410h205z" />
    <glyph glyph-name="dollar" unicode="$" horiz-adv-x="1130" 
d="M907 309q0 148 -170 234v-475q80 35 125 100t45 141zM567 35q55 0 111 12v522q-73 31 -236 82v-596q70 -20 125 -20zM678 1284q-108 39 -236 8v-456q33 -12 113 -38t123 -42v528zM240 1062q0 -68 34.5 -116.5t108.5 -89.5v418q-68 -29 -105.5 -86.5t-37.5 -125.5z
M442 -221h-59v219q-111 25 -185.5 92.5t-74.5 134.5q0 37 24.5 62.5t61.5 25.5t54.5 -25.5t32.5 -78.5t32.5 -83t54.5 -46v592q-133 66 -189.5 144.5t-56.5 195.5t63.5 202.5t182.5 124.5v82h59v-69q58 14 117 14t119 -14v69h59v-84q106 -33 174 -94t68 -127
q0 -29 -20.5 -49t-59.5 -20t-61.5 29.5t-39.5 76.5t-28.5 68.5t-32.5 33.5v-522q143 -68 209 -156.5t66 -212.5t-74 -222.5t-201 -141.5v-221h-59v209q-117 -23 -236 0v-209z" />
    <glyph glyph-name="percent" unicode="%" horiz-adv-x="1622" 
d="M307 -86l920 1507h86l-918 -1507h-88zM190 1007q0 -161 37 -231.5t121 -70.5t121 70.5t37 231.5t-37 231.5t-121 70.5t-121 -70.5t-37 -231.5zM76 1007.5q0 157.5 73.5 252t197.5 94.5t199 -94.5t75 -252t-75 -253t-199 -95.5t-197.5 95.5t-73.5 253zM1116 335
q0 -161 37 -231.5t121 -70.5t121 70.5t37 231.5t-37 231.5t-121 70.5t-121 -70.5t-37 -231.5zM1001 336q0 158 74 252t198 94t198.5 -94t74.5 -252t-74.5 -253t-198.5 -95t-198 95t-74 253z" />
    <glyph glyph-name="ampersand" unicode="&#x26;" horiz-adv-x="1515" 
d="M809 1132q0 69 -68 135t-123 66t-116.5 -58.5t-61.5 -120.5t88 -150l90 -91q109 80 150 130.5t41 88.5zM252 452q0 -137 110 -243.5t236 -106.5q162 0 307 144q-92 139 -180 259t-217 261q-147 -106 -201.5 -174t-54.5 -140zM1470 27q0 -52 -136 -52t-217 45.5
t-171 167.5q-221 -213 -475 -213q-169 0 -286 105.5t-117 261.5q0 96 49 188.5t151 159.5l193 127q-156 178 -156 260q0 55 38 119t99 115t126 80.5t111 29.5q93 0 183 -86t90 -174q0 -62 -56.5 -118t-233.5 -175q104 -102 207.5 -236t164.5 -241q68 88 107 184.5t39 144.5
q0 95 -131 120v57h419v-57q-70 -7 -134 -71q-32 -32 -54.5 -71t-83.5 -158t-125 -202q54 -102 143 -193q47 -47 92.5 -61t90.5 -17t59 -9.5t14 -30.5z" />
    <glyph glyph-name="quotesingle" unicode="'" horiz-adv-x="329" 
d="M47 1242q0 54 33 89t83 35t85 -35t35 -92t-23 -160l-74 -327h-45l-71 327q-23 109 -23 163z" />
    <glyph glyph-name="parenleft" unicode="(" horiz-adv-x="831" 
d="M225 500q0 467 200 656.5t318 262.5l43 -59q-203 -145 -325.5 -365.5t-122.5 -484.5t125.5 -490t322.5 -356l-43 -61q-220 122 -369 364.5t-149 532.5z" />
    <glyph glyph-name="parenright" unicode=")" horiz-adv-x="831" 
d="M606 500q0 -288 -145 -527.5t-373 -369.5l-43 61q195 128 322 354t127 491t-123 485t-326 366l43 59q518 -322 518 -919z" />
    <glyph glyph-name="asterisk" unicode="*" horiz-adv-x="1044" 
d="M500 1427h53l72 -346l338 41l18 -53l-305 -164l145 -319l-43 -33l-254 246l-256 -246l-43 33l148 319l-307 164l16 53l350 -41z" />
    <glyph glyph-name="plus" unicode="+" horiz-adv-x="1366" 
d="M143 594h486v485h108v-485h486v-109h-486v-485h-108v485h-486v109z" />
    <glyph glyph-name="comma" unicode="," horiz-adv-x="555" 
d="M365 -29q0 66 -39 96.5t-85 30.5t-81 26t-35 78t34 82.5t87 30.5q86 0 147.5 -84t61.5 -198q0 -147 -111 -244.5t-287 -103.5v53q139 8 223.5 72.5t84.5 160.5z" />
    <glyph glyph-name="hyphen" unicode="-" horiz-adv-x="768" 
d="M78 537h614v-148h-614v148z" />
    <glyph glyph-name="period" unicode="." horiz-adv-x="555" 
d="M278.5 203q47.5 0 80 -33t32.5 -80t-32.5 -80t-80 -33t-80 33t-32.5 80t32.5 80t80 33z" />
    <glyph glyph-name="slash" unicode="/" horiz-adv-x="546" 
d="M459 1421h88l-459 -1697h-88z" />
    <glyph glyph-name="zero" unicode="0" horiz-adv-x="1110" 
d="M272 673q0 -208 26 -350.5t95 -212.5t163 -69q94 0 160 67q67 67 93.5 205t26.5 363t-27 356.5t-94 199.5t-161 68t-161 -68q-68 -68 -94.5 -209.5t-26.5 -349.5zM545 1366q80 0 153.5 -30.5t122.5 -80.5q189 -188 189 -583t-183 -578q-119 -119 -271 -119t-284 129
q-174 175 -174 568t185 577q43 43 112.5 80t149.5 37z" />
    <glyph glyph-name="one" unicode="1" horiz-adv-x="1110" 
d="M643 1364v-1126q0 -106 36 -139t159 -33v-66h-541v66q121 0 153.5 32.5t32.5 147.5v723q0 149 -116 149h-95v66q204 70 306 180h65z" />
    <glyph glyph-name="two" unicode="2" horiz-adv-x="1110" 
d="M477 1231q-160 0 -303 -137l-45 43q113 125 211 177t225 52q172 0 277.5 -103.5t105.5 -250.5q0 -225 -354 -557l-330 -308h502q68 0 103.5 36t74.5 147h70l-113 -330h-799v74l400 399q137 137 204.5 272t67.5 239t-84 175.5t-213 71.5z" />
    <glyph glyph-name="three" unicode="3" horiz-adv-x="1110" 
d="M461 1249q-145 0 -271 -119l-40 46q82 100 173 145t212 45q164 0 255 -86t91 -188q0 -201 -215 -285v-4q137 -37 214.5 -127t77.5 -215q0 -186 -143 -336t-414 -150q-123 0 -209 34t-86 81q0 20 25 48t47 28t82 -36t115 -58.5t119 -22.5q125 0 208.5 102.5t83.5 256.5
q0 260 -315 260q-103 0 -223 -19l12 64q217 16 333 113.5t116 222.5q0 84 -72 142t-176 58z" />
    <glyph glyph-name="four" unicode="4" horiz-adv-x="1110" 
d="M668 455v714h-4l-510 -714h514zM668 324h-602v116l663 924h98v-909h201v-131h-201v-349h-159v349z" />
    <glyph glyph-name="five" unicode="5" horiz-adv-x="1110" 
d="M940 463q0 -171 -92 -280t-200 -158.5t-240 -49.5t-207.5 24t-75.5 56q0 23 31.5 59t51.5 36t76 -23q133 -55 250 -55t205 90t88 221t-106 238q-74 74 -192.5 122t-338.5 88l232 512h473l27 43l55 -32l-82 -148h-463l-104 -227q293 -43 452.5 -178t159.5 -338z" />
    <glyph glyph-name="six" unicode="6" horiz-adv-x="1110" 
d="M279 524q0 -219 80.5 -351t205.5 -132t201 100.5t76 245.5t-82 239t-206 94t-269 -102q-2 -25 -4 -46t-2 -48zM299 707q159 127 328 127q168 0 278.5 -120t110.5 -297t-133 -309.5t-331 -132.5t-323 152t-125 401q0 353 214.5 573.5t551.5 262.5l58 -49
q-283 -88 -436.5 -248t-192.5 -360z" />
    <glyph glyph-name="seven" unicode="7" horiz-adv-x="1110" 
d="M365 1196q-88 0 -127 -40t-68 -144h-64l89 331h827l-545 -1368h-86l488 1221h-514z" />
    <glyph glyph-name="eight" unicode="8" horiz-adv-x="1110" 
d="M831 1067q0 100 -81.5 166.5t-207.5 66.5t-212 -65.5t-86 -161.5q0 -31 11 -55.5t60 -73t273 -184.5q243 158 243 307zM246 293q0 -109 89 -180.5t224 -71.5t212 76t77 162t-69.5 153.5t-286.5 188.5q-246 -192 -246 -328zM104 1022q0 139 120 241.5t323 102.5t311.5 -87
t108.5 -200q0 -80 -70 -157.5t-252 -198.5q197 -115 278 -208t81 -200q0 -150 -127 -245t-340 -95t-326 98.5t-113 219.5q0 91 63.5 161.5t272.5 200.5q-330 169 -330 367z" />
    <glyph glyph-name="nine" unicode="9" horiz-adv-x="1110" 
d="M838 815q0 221 -81 353t-218 132q-113 0 -189 -100t-76 -246t82 -241t206 -95t269 103q7 44 7 94zM817 633q-159 -127 -328 -127t-279 119.5t-110 297.5t133 310.5t331 132.5t323 -152.5t125 -404.5q0 -333 -203.5 -558t-562.5 -276l-58 50q272 86 434 245.5t195 362.5z
" />
    <glyph glyph-name="colon" unicode=":" horiz-adv-x="555" 
d="M278.5 203q47.5 0 80 -33t32.5 -80t-32.5 -80t-80 -33t-80 33t-32.5 80t32.5 80t80 33zM278.5 942q47.5 0 80 -32.5t32.5 -80t-32.5 -80t-80 -32.5t-80 32.5t-32.5 80t32.5 80t80 32.5z" />
    <glyph glyph-name="semicolon" unicode=";" horiz-adv-x="555" 
d="M278.5 942q47.5 0 80 -32.5t32.5 -80t-32.5 -80t-80 -32.5t-80 32.5t-32.5 80t32.5 80t80 32.5zM365 -29q0 66 -39 96.5t-85 30.5t-81 26t-35 78t34 82.5t87 30.5q86 0 147.5 -84t61.5 -198q0 -147 -111 -244.5t-287 -103.5v53q139 8 223.5 72.5t84.5 160.5z" />
    <glyph glyph-name="less" unicode="&#x3c;" horiz-adv-x="1366" 
d="M287 541l934 -385v-117l-1078 455v96l1078 454v-116z" />
    <glyph glyph-name="equal" unicode="=" horiz-adv-x="1366" 
d="M143 365h1080v-109h-1080v109zM143 831h1080v-108h-1080v108z" />
    <glyph glyph-name="greater" unicode="&#x3e;" horiz-adv-x="1366" 
d="M1077 543l-934 385v116l1078 -454v-96l-1078 -455v117z" />
    <glyph glyph-name="question" unicode="?" horiz-adv-x="874" 
d="M213 90q0 47 33 80t80 33t79.5 -33t32.5 -80t-32.5 -80t-79.5 -33t-80 33t-33 80zM768 864q0 -191 -244 -278q-92 -35 -121 -64q-48 -48 -57 -168h-57q4 16 4 50q-1 34 -15 125t-14 115t31 39t93 35q133 44 201 90.5t68 154.5t-81.5 211.5t-180.5 103.5q-72 0 -155 -33
q-43 -14 -56 -14q-51 0 -51 62t50 98t130 36t160 -62t146.5 -156.5t107.5 -190t41 -154.5z" />
    <glyph glyph-name="at" unicode="@" horiz-adv-x="1878" 
d="M1147 784q0 61 -28.5 100.5t-82.5 39.5t-117 -69t-116 -172t-86 -208.5t-33 -171.5q0 -121 90 -121q68 0 159 91t152.5 239.5t61.5 271.5zM1200 197q0 -40 22.5 -63t64.5 -23t111.5 39.5t139.5 116.5t118 210t48 267q0 274 -176 450q-178 178 -482 178q-152 0 -304 -64.5
t-281 -193.5t-200 -309.5t-71 -372.5t62.5 -337.5t159 -242t240 -158t323.5 -61.5t375.5 81.5t291 224.5t140.5 249h59q-80 -262 -323 -437t-547 -175q-188 0 -350 65.5t-281 184.5t-183.5 281.5t-64.5 358.5t72 373t202 309t303 205.5t356 73.5q354 0 545 -191t191 -493
q0 -162 -63.5 -318.5t-151.5 -237.5q-163 -150 -356 -150q-80 0 -125 39t-45 99t10 110l10 45l-4 4q-109 -154 -195.5 -225.5t-168.5 -71.5t-132.5 65.5t-50.5 175.5t51.5 239.5t136.5 235t180 167t165 61.5t113 -38t51 -103h4l31 110l190 17l-188 -650q-23 -80 -23 -120z
" />
    <glyph glyph-name="A" unicode="A" 
d="M926 641l-252 602l-228 -602h480zM932 59q170 8 170 103q0 45 -11.5 83t-48.5 124l-79 184h-549l-58 -152q-51 -134 -51 -188q0 -143 178 -154v-59h-467v59q61 4 113.5 64.5t114.5 216.5l395 985l-31 72h191l475 -1127q47 -113 90 -155.5t113 -55.5v-59h-545v59z" />
    <glyph glyph-name="B" unicode="B" horiz-adv-x="1386" 
d="M457 762h196q182 0 269.5 72.5t87.5 201.5t-83 215t-237 86h-233v-575zM457 702v-497q0 -80 46 -113t156 -33h107q137 0 216 81t79 236t-116 240.5t-327 85.5h-161zM1282 371q0 -147 -127.5 -259t-390.5 -112h-709v59q133 0 172 42t39 141v925q0 90 -41 130t-170 40v60
h707q227 0 345 -95.5t118 -236.5q0 -196 -144.5 -255.5t-257.5 -72.5v-4q459 -48 459 -362z" />
    <glyph glyph-name="C" unicode="C" horiz-adv-x="1579" 
d="M1380 1018q-174 334 -460 334q-252 0 -394 -142q-182 -182 -182 -502t207 -526q137 -137 364 -137q371 0 480 356h63l-6 -299q-102 -57 -258 -92t-312 -35t-299 52.5t-245 147.5t-158.5 226t-56.5 294t67.5 301.5t241.5 281.5t483 143q264 0 480 -94l53 -309h-68z" />
    <glyph glyph-name="D" unicode="D" horiz-adv-x="1728" 
d="M475 1337v-1058q0 -119 61.5 -169.5t384.5 -50.5t397.5 237.5t74.5 373.5t-45 262.5t-185 265.5t-463 139h-225zM55 1397h779q184 0 330.5 -54.5t295 -198.5t148.5 -440t-215 -511q-96 -96 -239.5 -144.5t-393.5 -48.5h-705v59q141 0 185.5 40t44.5 141v915q0 98 -44 140
t-186 42v60z" />
    <glyph glyph-name="E" unicode="E" horiz-adv-x="1343" 
d="M1073 977v-500h-59q-16 115 -82 167t-213 52h-262v-426q0 -78 8 -116.5t44 -66.5t235 -28q198 0 311.5 67t187.5 204h66l-84 -330h-1176v59q129 0 173 40t44 143v921q0 98 -45 136t-172 38v60h1145l12 -301h-59q-37 121 -118 181t-230 60h-342v-581h276q131 0 204 52
t77 169h59z" />
    <glyph glyph-name="F" unicode="F" horiz-adv-x="1280" 
d="M1071 973v-506h-59q-18 139 -82 195.5t-203 56.5h-270v-483q0 -98 46 -137.5t195 -39.5v-59h-661v59q137 0 183 39t46 140v923q0 94 -40 136t-158 42q-4 0 -19 -2h-20v60h1216v-318h-59q-47 135 -125 196.5t-240 61.5h-364v-559h291q139 0 196 45t68 150h59z" />
    <glyph glyph-name="G" unicode="G" horiz-adv-x="1728" 
d="M930 1352q-252 0 -422 -174t-170 -465t169 -479.5t433 -188.5q102 0 203.5 26.5t165.5 71.5v320q0 102 -47.5 141t-202.5 39v59h645v-59q-115 0 -160 -39t-45 -135v-387q-301 -106 -545 -107q-346 0 -523 128t-245.5 262.5t-68.5 304.5q0 335 235 543t609 208
q236 0 499 -98l25 -305h-60q-63 162 -191 248t-304 86z" />
    <glyph glyph-name="H" unicode="H" horiz-adv-x="1685" 
d="M1235 674h-784v-418q0 -115 40.5 -156t172.5 -41v-59h-613v59q127 0 168 39t41 146v917q0 98 -42 137t-167 39v60h613v-60q-117 0 -165 -35.5t-48 -136.5v-413h784v413q0 94 -44 133t-169 39v60h612v-60q-127 0 -168 -37.5t-41 -138.5v-921q0 -100 42 -140.5t167 -40.5
v-59h-612v59q127 0 170 40t43 134v441z" />
    <glyph glyph-name="I" unicode="I" horiz-adv-x="724" 
d="M45 1397h635v-60q-125 0 -173 -36.5t-48 -129.5v-935q0 -96 45 -136.5t176 -40.5v-59h-635v59q133 0 178 37t45 133v942q0 90 -43 128t-180 38v60z" />
    <glyph glyph-name="J" unicode="J" horiz-adv-x="641" 
d="M639 1397v-60q-127 -2 -170 -39.5t-43 -136.5v-991q0 -298 -112 -410t-244 -112q-90 0 -151.5 40t-61.5 89t25.5 74.5t67.5 25.5t64.5 -21.5t42.5 -58.5t37 -53t45 -16q53 0 75 49t22 178v1221q0 82 -40 122.5t-153 40.5q-6 0 -16 -2h-21v60h633z" />
    <glyph glyph-name="K" unicode="K" horiz-adv-x="1642" 
d="M905 1397h576v-60q-114 0 -232.5 -92l-302.5 -245t-276 -218q109 -84 415 -350q318 -284 399 -327q81 -44 152 -46v-59h-329q-94 70 -360 309t-476 404q391 274 485 368q93 93 93 150q0 94 -144 106v60zM668 59v-59h-623v59q131 0 174 39t43 135v932q0 96 -45 134
t-172 38v60h623v-60q-125 0 -170 -34.5t-45 -143.5v-907q0 -106 42 -149.5t173 -43.5z" />
    <glyph glyph-name="L" unicode="L" horiz-adv-x="1409" 
d="M23 0v59q152 0 197.5 39t45.5 144v925q0 92 -48 131t-187 39v60h659v-60q-139 0 -186 -36.5t-47 -145.5v-922q0 -92 43 -133t151 -41h293q188 0 269 107.5t124 175.5h62l-96 -342h-1280z" />
    <glyph glyph-name="M" unicode="M" horiz-adv-x="2048" 
d="M369 1174q0 163 -166 163v60h358q5 -94 81.5 -282.5t98.5 -237.5l95 -209l69 -146q68 -133 121 -264q33 83 119 254l149 295q114 230 149.5 349t35.5 241h387v-60q-96 0 -133 -35.5t-37 -97.5t10 -149l106 -793q14 -111 59.5 -153.5t141.5 -49.5v-59h-594v59
q92 2 143.5 46.5t51.5 112.5t-19 226l-79 699h-5q-35 -108 -163 -373l-70 -135q-89 -168 -94.5 -184.5t-17.5 -41t-78 -168.5t-66 -178q-12 -39 -16 -63h-80q-32 139 -129 344l-199 420q-106 226 -154 379h-4l-114 -764q-13 -70 -13 -143q0 -74 42 -117t149 -60v-59h-484v59
q104 10 153.5 104.5t84.5 293.5l80 454q31 181 31 263z" />
    <glyph glyph-name="N" unicode="N" horiz-adv-x="1728" 
d="M373 287q0 -214 252 -228v-59h-574v59q117 0 180.5 61.5t63.5 166.5v860l-80 82q-59 63 -98 83.5t-99 24.5v60h304l1069 -1100v793q0 243 -248 247v60h547v-60q-129 -6 -175.5 -80.5t-46.5 -238.5v-789q0 -37 16 -130t15 -117h-108q-20 35 -69.5 96t-90.5 102l-858 893
v-786z" />
    <glyph glyph-name="O" unicode="O" horiz-adv-x="1665" 
d="M438.5 324.5q102.5 -158.5 199 -219t204.5 -60.5q215 0 351 148t136 417q0 320 -144.5 531t-381.5 211q-179 0 -323 -142t-144 -434q0 -293 102.5 -451.5zM121 691q0 318 204 524t513 206q168 0 301 -61.5t223 -164.5t136 -233.5t46 -258.5t-41 -253.5t-129 -234.5
t-226 -174.5t-301 -65.5t-291 49.5t-226.5 142.5t-153.5 228t-55 296z" />
    <glyph glyph-name="P" unicode="P" horiz-adv-x="1280" 
d="M991 1007q0 144 -93 237t-255 93h-188v-1101q0 -100 46 -138.5t181 -38.5v-59h-629v59q119 0 165 37t46 137v932q0 92 -43 132t-176 40v60h535q220 0 305 -19q160 -35 243.5 -124t83.5 -220q0 -170 -134.5 -281.5t-318.5 -111.5t-184 49q0 37 46 37l77 -4q114 0 203.5 70
t89.5 214z" />
    <glyph glyph-name="Q" unicode="Q" horiz-adv-x="1665" 
d="M483 256q147 -211 361 -211t349.5 148t135.5 417q0 178 -54 344t-159 271q-49 49 -131 88t-174 39t-174 -33t-191.5 -144t-109.5 -409q0 -299 147 -510zM330 176q-209 209 -209 519t203.5 518t513.5 208q170 0 304 -62.5t268 -221.5t134 -430q0 -272 -157 -473.5
t-398 -241.5v-4q49 -22 165 -84t220.5 -106t251.5 -74v-78q-140 -33 -303.5 12t-271.5 101t-226 127q-119 71 -139 82t-96 42q-74 31 -134.5 66t-125.5 100z" />
    <glyph glyph-name="R" unicode="R" 
d="M453 735h163q205 0 297.5 73.5t92.5 217.5t-92.5 227.5t-292.5 83.5h-168v-602zM1321 0q-76 0 -143.5 44t-161.5 159l-338 405q-29 33 -49.5 42t-69.5 9h-106v-417q0 -100 41 -141.5t168 -41.5v-59h-609v59q127 0 168 40t41 143v921q0 92 -43 133t-166 41v60h686
q219 0 353.5 -100.5t134.5 -256.5q0 -118 -88.5 -215.5t-300.5 -130.5q35 -41 87 -96t70 -76l252 -293q80 -94 133.5 -129t104.5 -37v-43q-88 -20 -164 -20z" />
    <glyph glyph-name="S" unicode="S" horiz-adv-x="1216" 
d="M615 1421q209 0 425 -114v-279h-69q-20 152 -117.5 238t-239.5 86t-218.5 -54.5t-76.5 -138.5q-1 -84 49 -133t113 -88t175 -97t273 -157.5t161 -308.5q0 -154 -120 -277t-382 -123q-106 0 -230.5 27t-226.5 74l-6 356h70q18 -184 120.5 -280.5t260.5 -96.5t250 65.5
t92 165.5t-69 170q-69 69 -235 160t-238.5 137t-119.5 93q-98 98 -98 225q0 158 124 254t333 96z" />
    <glyph glyph-name="T" unicode="T" horiz-adv-x="1599" 
d="M1190 1337h-295v-1091q0 -104 43 -145.5t174 -41.5v-59h-618v59q123 0 167 38t44 149v1091h-267q-127 0 -200.5 -60t-137.5 -210h-59l25 330h1466l27 -330h-58q-63 152 -134 211t-177 59z" />
    <glyph glyph-name="U" unicode="U" horiz-adv-x="1642" 
d="M1405 565q0 -590 -586 -590q-288 0 -437 131.5t-149 327.5v711q0 104 -37.5 148t-172.5 44v60h632v-60q-141 0 -186 -37.5t-45 -123.5v-713q0 -184 113.5 -292t326.5 -108t341 128t128 401v471q0 143 -49 207.5t-186 66.5v60h518v-60q-119 -14 -165 -62t-46 -192v-518z
" />
    <glyph glyph-name="V" unicode="V" 
d="M1032 1397h443v-60q-75 -12 -123 -59t-70 -97.5t-64 -174.5t-85 -224l-146 -346q-10 -23 -48 -105q-95 -205 -122 -356h-98q-32 162 -139 392l-338 727q-72 154 -102.5 187.5t-56.5 43.5t-65 12v60h551v-60q-160 -8 -159 -110q0 -63 34 -137l240 -508q37 -78 66.5 -146.5
l49.5 -112.5t29 -67l77 173t75 173l109 270q90 226 90 304q0 79 -40 119t-108 42v60z" />
    <glyph glyph-name="W" unicode="W" horiz-adv-x="2091" 
d="M1665 1397h401v-60q-58 -7 -100 -49t-111 -213l-202 -487q-11 -33 -53 -119q-174 -360 -195 -494h-86q-19 91 -107 281l-147 309l-197 -387q-70 -136 -86 -203h-88q-10 66 -108 289l-310 688l-72 175t-93 169t-95 41v60h488v-60q-55 -6 -88 -38.5t-33 -80.5t30.5 -124
t158.5 -349t235 -548q20 56 110 230l109 210l-211 444q-77 166 -106 200t-51.5 44t-55.5 12v60h473v-60q-45 -2 -73.5 -31.5t-28.5 -82.5t53 -162l107 -211l118 225q41 82 41 134t-31.5 88t-78.5 40v60h377v-60q-61 -6 -115.5 -73.5t-138.5 -231.5l-134 -260
q231 -487 246 -532q27 61 66 142l61 130l137 317q47 106 81 214t34 153q0 131 -131 141v60z" />
    <glyph glyph-name="X" unicode="X" horiz-adv-x="1579" 
d="M680 1337q-158 0 -158 -75q0 -33 32 -83.5t126 -164.5l158 -193l178 211q117 137 117 201q0 98 -160 104v60h518v-60q-59 -10 -135.5 -52.5t-294.5 -311.5l-174 -209l434 -518q106 -122 153 -152.5t130 -34.5v-59h-656v59q168 6 168 88q0 70 -143 238l-205 242l-178 -207
q-90 -104 -119 -154.5t-29 -89.5q0 -102 148 -117v-59h-535v59q119 6 223.5 116t180.5 200l262 311l-262 322q-26 34 -111.5 125l-119.5 125q-78 78 -191 79v60h643v-60z" />
    <glyph glyph-name="Y" unicode="Y" 
d="M627 1337q-168 0 -168 -78q0 -37 18.5 -74.5t67.5 -111.5l270 -403l217 305q107 155 107 231q0 113 -158 131v60h498v-60q-66 0 -130.5 -56t-174.5 -218l-332 -481v-340q0 -98 42 -140.5t165 -42.5v-59h-603v59q121 0 163 40t42 143v352l-381 565q-73 108 -120 141
t-134 37v60h611v-60z" />
    <glyph glyph-name="Z" unicode="Z" horiz-adv-x="1409" 
d="M80 0v59l975 1270h-449q-166 0 -239 -46.5t-125 -207.5h-60v322h1121v-47l-988 -1282h586q66 0 108 9t102 49.5t177 235.5h62l-93 -362h-1177z" />
    <glyph glyph-name="bracketleft" unicode="[" horiz-adv-x="704" 
d="M410 1192v-1358q0 -80 48 -107.5t183 -27.5h35v-70h-412v1768h412v-70h-35q-133 0 -182 -28.5t-49 -106.5z" />
    <glyph glyph-name="backslash" unicode="\" horiz-adv-x="546" 
d="M88 1421l459 -1697h-88l-459 1697h88z" />
    <glyph glyph-name="bracketright" unicode="]" horiz-adv-x="704" 
d="M295 -166v1358q0 80 -48 107.5t-184 27.5h-34v70h411v-1768h-411v70h34q135 0 183.5 28.5t48.5 106.5z" />
    <glyph glyph-name="asciicircum" unicode="^" horiz-adv-x="995" 
d="M516 1397l428 -717h-104l-344 575l-342 -575h-105l428 717h39z" />
    <glyph glyph-name="underscore" unicode="_" horiz-adv-x="1024" 
d="M1040 -256h-1058v102h1058v-102z" />
    <glyph glyph-name="grave" unicode="`" horiz-adv-x="681" 
d="M246 1374h49q51 0 71.5 -13t36.5 -56l89 -234h-72l-203 229q-23 23 -23 42t10.5 25.5t41.5 6.5z" />
    <glyph glyph-name="a" unicode="a" horiz-adv-x="960" 
d="M244 242q0 -61 43 -100.5t110 -39.5q115 0 217 113v279l-243 -107q-127 -55 -127 -145zM78 197q0 97 71.5 157.5t276.5 128.5l188 64v160q0 78 -53 125t-131 47t-130 -34t-52 -69t26 -77t27 -53q0 -22 -63 -47.5t-72 -25.5q-16 0 -35.5 43t-19.5 86q0 102 105.5 171
t261.5 69t226 -61.5t70 -184.5v-475q0 -102 55 -102q35 -1 74 22l19 -51q-94 -113 -174 -113q-127 0 -134 164q-148 -164 -299 -164q-104 0 -170.5 61.5t-66.5 158.5z" />
    <glyph glyph-name="b" unicode="b" horiz-adv-x="1130" 
d="M319 291q0 -117 85 -185.5t190 -68.5q137 0 217 100.5t80 274.5t-87.5 286.5t-221.5 112.5t-263 -119v-401zM658 942q93 0 169 -43t150 -148t74 -286t-134 -334.5t-364 -153.5q-119 0 -209 30t-184 91v1135l-146 67v31l305 90v-659q94 98 170 139t169 41z" />
    <glyph glyph-name="c" unicode="c" horiz-adv-x="960" 
d="M538 -23q-195 0 -324.5 135t-129.5 342q0 208 142 348t352 140q137 0 224 -52t87 -138t-78 -86q-39 0 -58 21.5t-41 74.5t-56.5 87t-118.5 34q-133 0 -213 -95.5t-80 -264.5t98 -284.5t248 -115.5t272 127l41 -29q-66 -115 -165.5 -179.5t-199.5 -64.5z" />
    <glyph glyph-name="d" unicode="d" horiz-adv-x="1153" 
d="M562 98q138 0 249 125v359q0 121 -77 208t-205 87t-206.5 -101.5t-78.5 -274.5t90 -288t228 -115zM585 942q122 0 226 -74v365l-158 67v31l318 90v-1218q0 -66 20.5 -94.5t64.5 -28.5t64 6v-53l-309 -53v170q-94 -94 -171 -133.5t-164 -39.5t-157.5 33t-123 92.5
t-82 139.5t-29.5 170t31.5 183t96 172t158 127t215.5 48z" />
    <glyph glyph-name="e" unicode="e" horiz-adv-x="937" 
d="M468 883q-89 0 -156 -67.5t-85 -176.5h457q-12 115 -69.5 179.5t-146.5 64.5zM219 582q0 -224 108.5 -341.5t262.5 -117.5q78 0 133 24.5t119 88.5l35 -35q-150 -223 -367 -224q-190 0 -310 135t-120 345t119 347.5t288 137.5t277.5 -105t112.5 -255h-658z" />
    <glyph glyph-name="f" unicode="f" horiz-adv-x="681" 
d="M616 922v-74h-237v-617q0 -109 29.5 -144.5t130.5 -35.5l22 2h27v-53h-541v53q109 0 140.5 37t31.5 137v621h-168v74q82 0 110.5 5t44.5 20t21 40t11 89t23.5 122.5t68.5 110.5q113 113 299 112q102 0 157.5 -29.5t55.5 -73.5t-23.5 -67.5t-57.5 -23.5t-57.5 16.5
t-56.5 47t-55.5 46t-48.5 15.5q-80 0 -122 -63.5t-42 -160.5v-206h237z" />
    <glyph glyph-name="g" unicode="g" horiz-adv-x="1044" 
d="M178 -160q0 -69 82 -111t226 -42t258 53t114 125t-62.5 96.5t-217.5 24.5t-281 16q-119 -93 -119 -162zM274 634q0 -120 60 -198t152 -78t141 58.5t49 155.5t-44.5 201t-170.5 104q-88 0 -137.5 -61.5t-49.5 -181.5zM51 -200q0 97 172 220q-117 33 -117 107q0 41 33 83
t137 132q-78 37 -124 108.5t-46 150.5q0 148 104.5 244.5t262.5 96.5q90 0 195 -35q129 -35 256 -35q29 0 75 5h17v-119q-18 -6 -72 -6t-156 28l-4 -4q52 -64 52 -148q0 -152 -106.5 -243.5t-258.5 -91.5q-82 0 -133 20q-88 -67 -88 -105t50 -52.5t177 -14.5h162
q328 -2 328 -211q0 -144 -155 -236.5t-386 -92.5q-154 0 -264.5 51t-110.5 148z" />
    <glyph glyph-name="h" unicode="h" horiz-adv-x="1130" 
d="M614 825q-148 0 -280 -120v-474q0 -104 29.5 -141t121.5 -37v-53h-462v53q82 0 116.5 31t34.5 117v1032l-143 67v31l303 90v-653q180 174 354 174q123 0 196.5 -75.5t73.5 -207.5v-444q0 -92 30 -127t114 -35v-53h-445v53q84 0 113 38t29 138v373q0 223 -185 223z" />
    <glyph glyph-name="i" unicode="i" horiz-adv-x="532" 
d="M170 1317q0 43 30.5 73.5t73.5 30.5t74 -30.5t31 -73.5t-31 -74t-74 -31t-73.5 31t-30.5 74zM356 227q0 -100 29 -137t115 -37v-53h-463v53q100 0 130 35t30 148v520l-150 67v31l309 88v-715z" />
    <glyph glyph-name="j" unicode="j" horiz-adv-x="512" 
d="M160 1317q0 43 30.5 73.5t73.5 30.5t74 -30.5t31 -73.5t-31 -74t-74 -31t-73.5 31t-30.5 74zM201 106v648l-160 67v33l319 88v-846q0 -95 -38.5 -160t-89 -128.5l-158.5 -192.5l-49 45q176 266 176 446z" />
    <glyph glyph-name="k" unicode="k" horiz-adv-x="1003" 
d="M485 922h478v-54q-70 -4 -128.5 -36.5t-164.5 -126.5l-193 -170l402 -377q78 -75 141 -105v-53h-182q-102 78 -152 127l-358 352l184 162q68 59 90.5 88t22.5 57q0 76 -140 82v54zM319 225q0 -92 28 -132t124 -40v-53h-448v53q76 4 106.5 36t30.5 112v1032l-135 67v31
l294 90v-1196z" />
    <glyph glyph-name="l" unicode="l" horiz-adv-x="512" 
d="M334 233q0 -106 28.5 -143t116.5 -37v-53h-454v53q92 4 120.5 37t28.5 148v995l-149 63v35l309 90v-1188z" />
    <glyph glyph-name="m" unicode="m" horiz-adv-x="1748" 
d="M604 817q-136 0 -252 -106v-488q0 -100 30 -135t116 -35v-53h-467v53q102 0 132 37t30 154v510l-142 69v31l301 88v-162q70 76 159 119t180 43t164 -48t93 -126q168 174 350 174q102 0 188.5 -61t86.5 -187v-469q0 -98 28.5 -135t118.5 -37v-53h-448v53q74 0 107.5 36
t33.5 126v379q0 106 -44 165.5t-165 59.5t-241 -108v-494q0 -88 30.5 -126t116.5 -38v-53h-459v53q90 0 121 38t31 136v412q0 82 -54.5 130t-144.5 48z" />
    <glyph glyph-name="n" unicode="n" horiz-adv-x="1153" 
d="M709 942q121 0 196.5 -78t75.5 -219v-424q0 -98 30.5 -133t118.5 -35v-53h-468v53q98 0 128.5 38t30.5 138v404q0 82 -50 135t-134 53q-152 0 -283 -123v-465q0 -104 29 -142t135 -38v-53h-477v53q90 2 122 36t32 142v523l-146 67v29l305 92v-176q176 176 355 176z" />
    <glyph glyph-name="o" unicode="o" horiz-adv-x="1087" 
d="M244 540q0 -100 64.5 -301.5t273.5 -201.5q115 0 188.5 87t73.5 220q0 201 -82.5 370t-239.5 169q-113 0 -195.5 -80t-82.5 -263zM871.5 805.5q132.5 -136.5 132.5 -341.5t-132.5 -346t-326.5 -141t-327.5 137.5t-133.5 344.5t132 345t327.5 138t328 -136.5z" />
    <glyph glyph-name="p" unicode="p" horiz-adv-x="1173" 
d="M599 825q-138 0 -257 -125v-342q0 -135 79 -225t207 -90t205.5 101.5t77.5 278.5t-87 289.5t-225 112.5zM588 -23q-139 0 -246 76v-225q0 -53 4 -82t28 -53.5t150 -24.5v-53h-489v53q96 0 121.5 39t25.5 148v899l-147 69v29l307 90v-172q160 172 334 172t284.5 -125.5
t110.5 -322.5t-106.5 -315t-194.5 -160t-182 -42z" />
    <glyph glyph-name="q" unicode="q" horiz-adv-x="1130" 
d="M811 629q0 109 -75.5 181.5t-203.5 72.5t-207 -97.5t-79 -273.5t86 -287.5t225 -111.5q70 0 126 26.5t128 89.5v400zM899 897q0 31 4 38t25 7h18q16 0 20.5 -6t4.5 -39v-1087q0 -82 36.5 -112t125.5 -30v-53h-484v53q109 0 135.5 40t26.5 151v305q-160 -187 -330 -187
q-171 0 -283 131t-112 340q0 210 140 352t341 142t332 -98v53z" />
    <glyph glyph-name="r" unicode="r" horiz-adv-x="768" 
d="M358 707q108 225 234 225q60 0 112 -37t52 -75t-22.5 -80t-46.5 -42q-25 0 -57 35t-52.5 49.5t-52.5 14.5t-66.5 -36t-104.5 -145v-397q0 -96 31 -131t137 -35h41v-53h-530v53q92 0 127 30t35 118v553l-162 69v29l321 90v-235h4z" />
    <glyph glyph-name="s" unicode="s" horiz-adv-x="811" 
d="M391 -23q-148 0 -274 76v254h53q12 -123 75 -196.5t151 -73.5t140 47t52 109t-33 97q-33 34 -77 58.5t-155 77.5t-171 113q-62 61 -62 163t84 171t222 69t257 -88v-217h-53q-45 246 -209 246q-72 0 -117 -39.5t-45 -99.5t31 -91t69 -52t148 -71t177 -117t67 -175
t-91 -184.5t-239 -76.5z" />
    <glyph glyph-name="t" unicode="t" horiz-adv-x="641" 
d="M186 186v662h-163v47q197 55 272 227h51v-200h283v-74h-283v-633q0 -78 28.5 -108.5t97.5 -30.5t175 16v-63q-133 -52 -250 -52q-116 0 -163.5 51.5t-47.5 157.5z" />
    <glyph glyph-name="u" unicode="u" horiz-adv-x="1153" 
d="M14 922q241 3 320 16v-631q0 -203 196 -203q139 0 271 119v484q0 92 -33 125.5t-135 35.5v54l203 6l55 4q51 6 70 6v-745q0 -107 75 -107q35 0 76 4v-53l-311 -57v178q-163 -181 -363 -181q-102 0 -183 76t-81 215v457q0 76 -31.5 105.5t-128.5 37.5v54z" />
    <glyph glyph-name="v" unicode="v" horiz-adv-x="1024" 
d="M25 922h424v-54q-129 -6 -130 -77q0 -36 25 -91l225 -516l140 346q71 174 71 226q-1 104 -125 112v54h353v-54q-66 -8 -106 -50t-83 -152l-274 -691h-51l-338 779q-27 63 -53.5 86.5t-77.5 27.5v54z" />
    <glyph glyph-name="w" unicode="w" 
d="M12 922h381v-54q-102 -6 -102 -82q0 -27 33 -106l198 -498l199 498l-21 59q-25 72 -55.5 97.5t-93.5 31.5v54h434v-54q-127 -8 -127 -77q0 -35 33 -121l186 -473l174 460q25 68 25 107q0 96 -115 104v54h312v-54q-49 -4 -81 -42t-67 -128l-272 -723h-54l-249 633
l-252 -633h-54l-315 779q-20 55 -46 79.5t-71 34.5v54z" />
    <glyph glyph-name="x" unicode="x" horiz-adv-x="1067" 
d="M305 137q0 -78 117 -84v-53h-375v53q45 6 101.5 48t152.5 153l162 184l-273 330q-51 63 -76.5 80.5t-74.5 19.5v54h410v-54q-88 -2 -89 -47q0 -16 11.5 -33.5t58.5 -76.5l131 -158l109 123q67 76 67 123q0 61 -98 69v54h352v-54q-90 -4 -180 -108l-217 -250l272 -332
q53 -66 89 -91.5t79 -33.5v-53h-440v53q100 12 100 64q0 34 -71 123l-127 155l-99 -110q-53 -61 -72.5 -92t-19.5 -56z" />
    <glyph glyph-name="y" unicode="y" horiz-adv-x="1024" 
d="M336 797q0 -50 57 -172l197 -437l129 338q69 180 69 230t-28.5 77t-95.5 35v54h337v-54q-66 -14 -100.5 -57t-83.5 -172l-287 -764q-45 -119 -115.5 -189.5t-152.5 -70.5t-127 31.5t-45 71.5t24 67t50 27t39.5 -8.5t32.5 -22.5q39 -39 91 -39t97 57.5t92 190.5l-336 737
q-39 84 -67.5 110.5t-87.5 30.5v54h434v-54q-123 -4 -123 -71z" />
    <glyph glyph-name="z" unicode="z" horiz-adv-x="937" 
d="M43 0v47l606 821h-184q-140 0 -189 -24.5t-76.5 -56t-58.5 -85.5h-53v248h21q25 0 51 -14t96 -14h584v-50l-598 -819h215q145 0 220 54.5t130 187.5h49l-49 -295h-764z" />
    <glyph glyph-name="braceleft" unicode="{" horiz-adv-x="970" 
d="M600 1192q0 -70 23 -176l2 -6q18 -109 18 -154q0 -111 -73.5 -201t-209.5 -145q135 -55 209 -145.5t74 -200.5q0 -45 -20 -160q-23 -102 -23 -174t59.5 -132t165.5 -85v-37q-156 29 -254 135.5t-98 245.5q0 44 23 150t22 155q0 80 -64 145.5t-173 79.5v45q109 14 173 80
t64 141t-26 173q-18 94 -19 137q0 139 98.5 245.5t253.5 135.5v-37q-106 -25 -165.5 -85t-59.5 -130z" />
    <glyph glyph-name="bar" unicode="|" horiz-adv-x="1044" 
d="M479 1536h88v-2048h-88v2048z" />
    <glyph glyph-name="braceright" unicode="}" horiz-adv-x="970" 
d="M453 262q0 -37 10 -87l12 -60q23 -98 23 -158q0 -139 -98.5 -245.5t-254.5 -135.5v37q106 25 166 85t60 144q0 50 -22 158t-21 164q0 111 73.5 201t208.5 145q-135 55 -208.5 145t-73.5 201q0 55 21 165t22 157q0 84 -59.5 144t-166.5 85v37q156 -29 254.5 -135.5
t98.5 -245.5q0 -59 -22 -157t-23 -148q0 -80 65.5 -146t171.5 -80v-45q-106 -14 -171.5 -79.5t-65.5 -145.5z" />
    <glyph glyph-name="asciitilde" unicode="~" horiz-adv-x="1366" 
d="M371 569q-139 0 -172 -180h-58q4 152 74 228.5t191 76.5q55 0 119.5 -21.5t174.5 -68.5h2q111 -47 178.5 -70.5t127.5 -23.5t104.5 49t52.5 135h58q-6 -150 -75 -227.5t-177 -77.5t-320 90l-22 10q-183 80 -258 80z" />
    <glyph glyph-name="exclamdown" unicode="&#xa1;" horiz-adv-x="555" 
d="M389 829.5q0 -47.5 -32.5 -80t-80 -32.5t-80 32.5t-32.5 80t32.5 80t80 32.5t80 -32.5t32.5 -80zM383 -435q0 -38 -19.5 -55.5t-68.5 -17.5h-35q-86 0 -86 74q0 24 6 80l80 889h55l66 -893q2 -39 2 -77z" />
    <glyph glyph-name="cent" unicode="&#xa2;" horiz-adv-x="960" 
d="M537 883q-133 0 -213 -96.5t-80 -271.5t108 -290l240 652q-27 6 -55 6zM531 -23q-108 0 -193 46l-139 -381h-58l148 407q-96 63 -150.5 166t-54.5 219q0 223 140 365.5t349 142.5h41l136 371h59l-139 -379q106 -18 162.5 -65.5t56.5 -114.5q0 -88 -78 -88
q-39 0 -56.5 19.5t-41.5 79.5t-70 93l-246 -672q88 -63 197 -63q145 0 268 127l41 -29q-66 -115 -165 -179.5t-207 -64.5z" />
    <glyph glyph-name="sterling" unicode="&#xa3;" horiz-adv-x="1449" 
d="M220 -387q-83 0 -83 88q0 45 50.5 100.5t134.5 96.5l100 348h-266l16 59h266l107 400q85 322 222.5 519t379.5 197q111 0 182.5 -40t71.5 -99q0 -33 -20.5 -56.5t-49 -23.5t-51 14.5t-62.5 49.5t-78 56t-97 21q-59 -1 -110 -51t-95 -163t-119 -386l-121 -438h287l-21 -59
h-282q-59 -195 -125 -316q85 29 159 29t139 -32.5t135 -86.5t110 -77t81 -23t71 23.5t30 54.5t-33 86t-33 92t22.5 61.5t62.5 24.5t68.5 -38t28.5 -89q0 -115 -83 -227.5t-236 -112.5q-74 0 -128 30.5t-124 90.5t-122.5 90.5t-104.5 30.5t-86 -9q-45 -109 -99.5 -172
t-94.5 -63z" />
    <glyph glyph-name="currency" unicode="&#xa4;" horiz-adv-x="1366" 
d="M682 999q-70 0 -132.5 -26.5t-108.5 -72.5t-72.5 -108.5t-26.5 -132t26.5 -132t72.5 -109.5t108.5 -74t132.5 -27t132.5 27t109.5 74t73.5 109.5t26.5 132t-26.5 132t-73.5 108.5t-109.5 72.5t-132.5 26.5zM686 1106q163 0 275 -96l126 127l74 -76l-127 -127
q96 -117 96 -278t-96 -273l127 -127l-74 -74l-126 127q-126 -96 -284 -96t-269 98l-129 -129l-74 74l129 129q-96 119 -96 274q0 82 27.5 155t68.5 118l-129 129l74 76l129 -129q115 98 278 98z" />
    <glyph glyph-name="yen" unicode="&#xa5;" 
d="M842 664v-248h485v-60h-485v-125q0 -98 43 -135t164 -37v-59h-603v59q117 0 161 40t44 134v123h-495v60h495v248h-495v59h462l-290 436q-68 101 -108 130.5t-71.5 37.5t-74.5 10v60h610v-58q-96 0 -132 -18.5t-36 -68.5t72 -160l223 -340h8l211 313q51 74 51 141
q0 113 -157 131v60h497v-60q-59 -2 -113.5 -43t-121.5 -137l-303 -434h444v-59h-485z" />
    <glyph glyph-name="brokenbar" unicode="&#xa6;" horiz-adv-x="1044" 
d="M479 1382h88v-716h-88v716zM479 358h88v-716h-88v716z" />
    <glyph glyph-name="section" unicode="&#xa7;" horiz-adv-x="831" 
d="M688 32q0 272 -184 582l-139 240q-97 170 -124.5 238.5t-27.5 134.5h-4q-68 -107 -68 -253q0 -297 219 -626l78 -119q90 -137 131 -236t49 -208h5q65 113 65 247zM72 952q0 90 30.5 178.5t119 189.5t270.5 101q100 0 165.5 -39t65.5 -96q0 -72 -76 -72q-31 0 -54 14.5
t-59 47.5t-67 50t-78 17t-83 -32.5t-36 -77.5t20.5 -94t80.5 -146l172 -284q120 -197 166 -347q47 -149 47 -292q0 -211 -114 -336t-304 -125q-100 0 -169 39t-69 96q0 35 26 57.5t60 22.5t59 -16.5t62 -50.5t69 -53t76 -19t74.5 33.5t30.5 83.5q0 101 -119 274l-82 121
q-235 342 -259.5 503.5t-24.5 251.5z" />
    <glyph glyph-name="dieresis" unicode="&#xa8;" horiz-adv-x="681" 
d="M457 1221q0 41 29.5 70.5t70.5 29.5t70.5 -29.5t29.5 -70.5t-29.5 -71t-70.5 -30t-70.5 30t-29.5 71zM23 1221q0 41 29.5 70.5t70.5 29.5t70.5 -29.5t29.5 -70.5t-29.5 -71t-70.5 -30t-70.5 30t-29.5 71z" />
    <glyph glyph-name="copyright" unicode="&#xa9;" horiz-adv-x="1579" 
d="M1438 688q0 133 -50.5 251t-139.5 207t-206.5 139t-251 50t-251 -50t-206.5 -139t-139.5 -207t-50.5 -251t50.5 -251t139.5 -207t206.5 -139t251 -50t251 50t206.5 139t139.5 207t50.5 251zM1499 688q0 -143 -54 -273t-152.5 -228.5t-228.5 -152.5t-273.5 -54t-273.5 54
t-228.5 152.5t-152.5 228.5t-54 273t54 273.5t152.5 228.5t228.5 152.5t273.5 54.5t273.5 -54.5t228.5 -152.5t152.5 -228.5t54 -273.5zM1051 1100q31 0 49 45h39l20 -281h-39q-72 236 -303 236q-147 0 -233 -106t-86 -298t90 -295.5t239 -103.5q197 0 312 164l39 -21
q-139 -203 -385 -202q-197 0 -330 127t-133 319t142.5 326.5t354.5 134.5q75 0 141 -22.5t83 -22.5z" />
    <glyph glyph-name="ordfeminine" unicode="&#xaa;" horiz-adv-x="618" 
d="M156 996q0 -32 28.5 -55t71.5 -23q78 0 141 67v166l-157 -61q-37 -12 -60.5 -37t-23.5 -57zM313 1421q185 0 185 -127v-264q0 -61 8 -81.5t30 -20.5t46 14l14 -31q-66 -68 -113 -67q-80 0 -86 98q-94 -98 -194 -98q-68 0 -112 35.5t-44 93.5q0 109 170 151l180 60v90
q0 109 -125 108q-43 0 -77.5 -19.5t-34.5 -41.5q0 -23 17 -47t17 -32t-36.5 -25t-48.5 -17t-25.5 25.5t-13.5 56.5q0 59 70.5 99t172.5 40z" />
    <glyph glyph-name="guillemotleft" unicode="&#xab;" horiz-adv-x="724" 
d="M397 512l207 356h35l-109 -356l109 -367h-35zM92 512l299 463h37l-178 -463l178 -459h-37z" />
    <glyph glyph-name="logicalnot" unicode="&#xac;" horiz-adv-x="1366" 
d="M143 831h1080v-575h-109v467h-971v108z" />
    <glyph glyph-name="minus" unicode="&#xad;" horiz-adv-x="1366" 
d="M143 594h1080v-109h-1080v109z" />
    <glyph glyph-name="minus" unicode="&#x2212;" horiz-adv-x="1366" 
d="M143 594h1080v-109h-1080v109z" />
    <glyph glyph-name="registered" unicode="&#xae;" horiz-adv-x="1579" 
d="M1438 688q0 133 -50.5 251t-139.5 207t-206.5 139t-251 50t-251 -50t-206.5 -139t-139.5 -207t-50.5 -251t50.5 -251t139.5 -207t206.5 -139t251 -50t251 50t206.5 139t139.5 207t50.5 251zM1499 688q0 -143 -54 -273t-152.5 -228.5t-228.5 -152.5t-273.5 -54t-273.5 54
t-228.5 152.5t-152.5 228.5t-54 273t54 273.5t152.5 228.5t228.5 152.5t273.5 54.5t273.5 -54.5t228.5 -152.5t152.5 -228.5t54 -273.5zM717 1079q-31 0 -82 -14v-358h29q121 0 188.5 48t67.5 133t-57.5 138t-145.5 53zM489 389v604q0 53 -20 73.5t-72 20.5v37h385
q135 0 217 -61.5t82 -163.5q0 -166 -223 -221l209 -299q33 -49 58.5 -66.5t62.5 -21.5v-33h-184l-295 406h-74v-285q0 -51 25.5 -69.5t91.5 -18.5v-33h-367v33q61 0 82.5 23.5t21.5 74.5z" />
    <glyph glyph-name="macron" unicode="&#xaf;" horiz-adv-x="681" 
d="M-27 1282h736v-121h-736v121z" />
    <glyph glyph-name="degree" unicode="&#xb0;" horiz-adv-x="759" 
d="M600 1075q0 92 -64.5 156.5t-156.5 64.5t-156.5 -64.5t-64.5 -156.5t64.5 -156.5t156.5 -64.5t156.5 64.5t64.5 156.5zM700 1075.5q0 -65.5 -24.5 -124t-69.5 -103.5t-103.5 -69.5t-124 -24.5t-123.5 24.5t-103.5 69.5t-70 103.5t-24.5 124t24.5 123.5t70 103.5t103.5 70
t123.5 24.5t124 -24.5t103.5 -70t69.5 -103.5t24.5 -123.5z" />
    <glyph glyph-name="plusminus" unicode="&#xb1;" horiz-adv-x="1366" 
d="M143 109h1080v-109h-1080v109zM143 915h486v486h108v-486h486v-108h-486v-485h-108v485h-486v108z" />
    <glyph glyph-name="twosuperior" unicode="&#xb2;" horiz-adv-x="681" 
d="M61 686v47l209 180q186 160 187 279q0 53 -46.5 88t-106.5 35t-99 -16.5t-90 -59.5l-39 33q63 66 127.5 95.5t154.5 29.5t158 -53.5t68 -123.5t-56.5 -142t-189.5 -183l-143 -115v-4h258q47 0 65 15.5t41 76.5h66l-72 -182h-492z" />
    <glyph glyph-name="threesuperior" unicode="&#xb3;" horiz-adv-x="681" 
d="M420 1229q0 41 -39 69.5t-90 28.5t-95 -21.5t-69 -48.5l-37 35q53 57 108.5 81t139.5 24t146.5 -44t62.5 -110q0 -86 -117 -139v-4q70 -8 116 -57.5t46 -112.5q0 -111 -96.5 -183.5t-243.5 -72.5q-76 0 -131 18.5t-55 44.5q0 16 18 31.5t38 15.5t76 -30q57 -30 117 -29
q60 0 106 49t46 125q0 127 -174 127q-54 0 -146 -10l9 47q123 6 193.5 51t70.5 115z" />
    <glyph glyph-name="acute" unicode="&#xb4;" horiz-adv-x="681" 
d="M387 1374h49q31 0 41 -6t10 -26t-22 -42l-203 -229h-72l89 234q16 43 36.5 56t71.5 13z" />
    <glyph glyph-name="mu" unicode="&#xb5;" horiz-adv-x="1036" 
d="M117 934h159v-619q0 -213 195 -213q78 0 157 39t117 95v698h160v-643q0 -119 20.5 -168t70.5 -49t75 29.5t43 107.5h51q-2 -113 -68.5 -174.5t-160.5 -61.5q-162 0 -188 185q-106 -102 -188.5 -143.5t-166.5 -41.5q-137 0 -217 105v-35q-2 -16 -2 -93t30 -172t29 -131
q0 -36 -26.5 -64.5t-65.5 -28.5t-67.5 27.5t-28.5 63.5q-1 37 21 107q50 166 51 434v746z" />
    <glyph glyph-name="paragraph" unicode="&#xb6;" horiz-adv-x="897" 
d="M766 1186v-1585h-59v1745h-185v-1745h-59v1071q-229 0 -348 89t-119 255t111.5 273.5t326.5 107.5h467v-37q-90 -4 -112.5 -33.5t-22.5 -140.5z" />
    <glyph glyph-name="periodcentered" unicode="&#xb7;" horiz-adv-x="555" 
d="M278.5 666q47.5 0 80 -33t32.5 -80t-32.5 -80t-80 -33t-80 33t-32.5 80t32.5 80t80 33z" />
    <glyph glyph-name="periodcentered" unicode="&#x2219;" horiz-adv-x="555" 
d="M278.5 666q47.5 0 80 -33t32.5 -80t-32.5 -80t-80 -33t-80 33t-32.5 80t32.5 80t80 33z" />
    <glyph glyph-name="cedilla" unicode="&#xb8;" horiz-adv-x="681" 
d="M180 -356v53q156 0 156 84q0 70 -100 76l86 155h51l-39 -78q55 -10 87 -43.5t32 -80.5q0 -166 -273 -166z" />
    <glyph glyph-name="onesuperior" unicode="&#xb9;" horiz-adv-x="681" 
d="M522 733v-47h-346v47q74 0 92.5 12.5t18.5 51.5v389q0 43 -13.5 56t-56.5 13l-55 2v43q111 31 188 97h58v-586q0 -49 18 -63.5t96 -14.5z" />
    <glyph glyph-name="ordmasculine" unicode="&#xba;" horiz-adv-x="704" 
d="M160 1202q0 -78 28.5 -156.5t72.5 -122.5t118 -44t122 52t48 129t-37.5 201.5t-171.5 124.5q-84 0 -132 -53t-48 -131zM55 1132q0 124 86 206.5t213 82.5t213 -81.5t86 -203.5t-85 -207t-213 -85t-214 82t-86 206z" />
    <glyph glyph-name="guillemotright" unicode="&#xbb;" horiz-adv-x="724" 
d="M328 512l-207 -367h-35l109 367l-109 356h35zM633 512l-299 -459h-37l178 459l-178 463h37z" />
    <glyph glyph-name="onequarter" unicode="&#xbc;" horiz-adv-x="1622" 
d="M233 -86l920 1507h86l-917 -1507h-89zM287 797v389q0 43 -13.5 56t-56.5 13l-55 2v43q111 31 188 97h58v-586q0 -49 18 -63.5t96 -14.5v-47h-346v47q74 0 92.5 12.5t18.5 51.5zM1167 246v323l-272 -323h272zM1167 166h-354v67l393 476h80v-463h121v-80h-121v-176h-119
v176z" />
    <glyph glyph-name="onehalf" unicode="&#xbd;" horiz-adv-x="1622" 
d="M287 797v389q0 43 -13.5 56t-56.5 13l-55 2v43q111 31 188 97h58v-586q0 -49 18 -63.5t96 -14.5v-47h-346v47q74 0 92.5 12.5t18.5 51.5zM909 0v47l209 180q186 160 187 279q0 53 -46.5 88t-106.5 35t-99 -16.5t-90 -59.5l-39 33q63 66 127.5 95.5t154.5 29.5t158 -53.5
t68 -123.5t-56.5 -142.5t-189.5 -182.5l-144 -115v-4h258q47 0 65.5 15.5t41.5 76.5h66l-72 -182h-492zM233 -86l920 1507h86l-917 -1507h-89z" />
    <glyph glyph-name="threequarters" unicode="&#xbe;" horiz-adv-x="1622" 
d="M233 -86l920 1507h86l-917 -1507h-89zM444 1229q0 41 -38 69.5t-90 28.5t-96 -21.5t-68 -48.5l-37 35q53 57 108 81t139 24t146.5 -44t62.5 -110q0 -86 -116 -139v-4q70 -8 115.5 -57.5t45.5 -112.5q0 -111 -96 -183.5t-244 -72.5q-76 0 -131 18.5t-55 44.5
q0 16 18.5 31.5t37.5 15.5t77 -30t118 -29q59 0 105 49t46 125q0 127 -175 127q-53 0 -145 -10l8 47q123 6 193.5 51t70.5 115zM1167 246v323l-272 -323h272zM1167 166h-354v67l393 476h80v-463h121v-80h-121v-176h-119v176z" />
    <glyph glyph-name="questiondown" unicode="&#xbf;" horiz-adv-x="874" 
d="M662 829.5q0 -47.5 -33 -80t-80 -32.5t-80 32.5t-33 80t33 80t80 32.5t80 -32.5t33 -80zM106 55q0 104 82 187q49 49 153 89t131 67q52 53 56 167h58q-2 -16 -2 -54t13 -125t13 -111t-31 -39t-93 -35q-121 -39 -195 -87.5t-74 -157.5t82.5 -211.5t179.5 -102.5
q69 0 135 23t76 24q51 -1 51 -63t-50 -98t-130 -36t-159.5 62.5t-146.5 156.5t-108 189.5t-41 154.5z" />
    <glyph glyph-name="Agrave" unicode="&#xc0;" 
d="M926 641l-252 602l-228 -602h480zM932 59q170 8 170 103q0 45 -11.5 83t-48.5 124l-79 184h-549l-58 -152q-51 -134 -51 -188q0 -143 178 -154v-59h-467v59q61 4 113.5 64.5t114.5 216.5l395 985l-31 72h191l475 -1127q47 -113 90 -155.5t113 -55.5v-59h-545v59z
M600 1785q0 19 10.5 25.5t40.5 6.5h49q51 0 72 -13.5t37 -56.5l88 -234h-72l-202 230q-23 23 -23 42z" />
    <glyph glyph-name="Aacute" unicode="&#xc1;" 
d="M926 641l-252 602l-228 -602h480zM932 59q170 8 170 103q0 45 -11.5 83t-48.5 124l-79 184h-549l-58 -152q-51 -134 -51 -188q0 -143 178 -154v-59h-467v59q61 4 113.5 64.5t114.5 216.5l395 985l-31 72h191l475 -1127q47 -113 90 -155.5t113 -55.5v-59h-545v59z
M793 1817h49q31 0 41 -6.5t10 -25.5t-23 -42l-202 -230h-72l88 234q16 43 36.5 56.5t72.5 13.5z" />
    <glyph glyph-name="Acircumflex" unicode="&#xc2;" 
d="M926 641l-252 602l-228 -602h480zM932 59q170 8 170 103q0 45 -11.5 83t-48.5 124l-79 184h-549l-58 -152q-51 -134 -51 -188q0 -143 178 -154v-59h-467v59q61 4 113.5 64.5t114.5 216.5l395 985l-31 72h191l475 -1127q47 -113 90 -155.5t113 -55.5v-59h-545v59z
M770 1702l-158 -191h-90l174 304h187l176 -304h-94z" />
    <glyph glyph-name="Atilde" unicode="&#xc3;" 
d="M926 641l-252 602l-228 -602h480zM932 59q170 8 170 103q0 45 -11.5 83t-48.5 124l-79 184h-549l-58 -152q-51 -134 -51 -188q0 -143 178 -154v-59h-467v59q61 4 113.5 64.5t114.5 216.5l395 985l-31 72h191l475 -1127q47 -113 90 -155.5t113 -55.5v-59h-545v59z
M901 1686q68 0 113 106l55 -31q-18 -109 -76.5 -167t-102.5 -58t-82 15t-110 53t-106 38q-33 0 -56.5 -22.5t-54.5 -81.5l-57 25q14 96 66.5 161.5t115.5 65.5t161 -52q100 -52 134 -52z" />
    <glyph glyph-name="Adieresis" unicode="&#xc4;" 
d="M926 641l-252 602l-228 -602h480zM932 59q170 8 170 103q0 45 -11.5 83t-48.5 124l-79 184h-549l-58 -152q-51 -134 -51 -188q0 -143 178 -154v-59h-467v59q61 4 113.5 64.5t114.5 216.5l395 985l-31 72h191l475 -1127q47 -113 90 -155.5t113 -55.5v-59h-545v59z
M862 1663q0 41 30 70.5t71 29.5t70.5 -29.5t29.5 -70.5t-29.5 -70.5t-70.5 -29.5t-71 29.5t-30 70.5zM428 1663q0 41 29.5 70.5t70.5 29.5t71 -29.5t30 -70.5t-30 -70.5t-71 -29.5t-70.5 29.5t-29.5 70.5z" />
    <glyph glyph-name="Aring" unicode="&#xc5;" 
d="M926 641l-252 602l-228 -602h480zM932 59q170 8 170 103q0 45 -11.5 83t-48.5 124l-79 184h-549l-58 -152q-51 -134 -51 -188q0 -143 178 -154v-59h-467v59q61 4 113.5 64.5t114.5 216.5l395 985l-31 72h191l475 -1127q47 -113 90 -155.5t113 -55.5v-59h-545v59z
M633 1689.5q0 -47.5 32.5 -81t80 -33.5t81 33.5t33.5 81t-33.5 80t-81 32.5t-80 -32.5t-32.5 -80zM571 1689.5q0 71.5 52.5 123t124 51.5t123 -51.5t51.5 -123t-51.5 -124t-123 -52.5t-124 52.5t-52.5 124z" />
    <glyph glyph-name="AE" unicode="&#xc6;" horiz-adv-x="2027" 
d="M836 756l-170 512q-82 -153 -232 -512h402zM1540 874q0 71 -18 125h61l172 -512h-59q-81 131 -147 170t-203 39h-295l133 -432q42 -134 63 -162t39.5 -35.5t48.5 -7.5h209q137 0 197.5 60.5t90.5 110t69 122.5l2 2h67l-67 -354h-1055v59q78 0 119 35t41 79t-11 77
l-143 446h-446q-168 -381 -168 -493q0 -66 46 -103t128 -41v-59h-457v59q68 14 113 64.5t104 185.5l350 793q37 90 37 129q0 102 -147 106v60h1200l102 -303h-63q-121 150 -208.5 196.5t-240.5 46.5h-356l184 -581h352q156 0 156 118z" />
    <glyph glyph-name="Ccedilla" unicode="&#xc7;" horiz-adv-x="1579" 
d="M1380 1018q-174 334 -460 334q-252 0 -394 -142q-182 -182 -182 -502t207 -526q137 -137 364 -137q371 0 480 356h63l-6 -299q-102 -57 -258 -92t-303 -35q-41 0 -64 2l-22 -43q55 -10 87 -43.5t32 -80.5q0 -166 -273 -166v53q156 0 156 84q0 70 -100 76l69 127
q-291 33 -472 226.5t-181 491.5q0 156 67.5 294.5t241.5 281.5t483 143q264 0 480 -94l53 -309h-68z" />
    <glyph glyph-name="Egrave" unicode="&#xc8;" horiz-adv-x="1343" 
d="M1073 977v-500h-59q-16 115 -82 167t-213 52h-262v-426q0 -78 8 -116.5t44 -66.5t235 -28q198 0 311.5 67t187.5 204h66l-84 -330h-1176v59q129 0 173 40t44 143v921q0 98 -45 136t-172 38v60h1145l12 -301h-59q-37 121 -118 181t-230 60h-342v-581h276q131 0 204 52
t77 169h59zM526 1785q0 19 10.5 25.5t41.5 6.5h49q51 0 71.5 -13.5t36.5 -56.5l88 -234h-71l-203 230q-23 23 -23 42z" />
    <glyph glyph-name="Eacute" unicode="&#xc9;" horiz-adv-x="1343" 
d="M1073 977v-500h-59q-16 115 -82 167t-213 52h-262v-426q0 -78 8 -116.5t44 -66.5t235 -28q198 0 311.5 67t187.5 204h66l-84 -330h-1176v59q129 0 173 40t44 143v921q0 98 -45 136t-172 38v60h1145l12 -301h-59q-37 121 -118 181t-230 60h-342v-581h276q131 0 204 52
t77 169h59zM719 1817h49q31 0 41 -6.5t10 -25.5t-22 -42l-203 -230h-72l88 234q16 43 37 56.5t72 13.5z" />
    <glyph glyph-name="Ecircumflex" unicode="&#xca;" horiz-adv-x="1343" 
d="M1073 977v-500h-59q-16 115 -82 167t-213 52h-262v-426q0 -78 8 -116.5t44 -66.5t235 -28q198 0 311.5 67t187.5 204h66l-84 -330h-1176v59q129 0 173 40t44 143v921q0 98 -45 136t-172 38v60h1145l12 -301h-59q-37 121 -118 181t-230 60h-342v-581h276q131 0 204 52
t77 169h59zM651 1702l-157 -191h-91l175 304h186l176 -304h-94z" />
    <glyph glyph-name="Edieresis" unicode="&#xcb;" horiz-adv-x="1343" 
d="M1073 977v-500h-59q-16 115 -82 167t-213 52h-262v-426q0 -78 8 -116.5t44 -66.5t235 -28q198 0 311.5 67t187.5 204h66l-84 -330h-1176v59q129 0 173 40t44 143v921q0 98 -45 136t-172 38v60h1145l12 -301h-59q-37 121 -118 181t-230 60h-342v-581h276q131 0 204 52
t77 169h59zM819 1663q0 41 30 70.5t71 29.5t70.5 -29.5t29.5 -70.5t-29.5 -70.5t-70.5 -29.5t-71 29.5t-30 70.5zM385 1663q0 41 29.5 70.5t70.5 29.5t71 -29.5t30 -70.5t-30 -70.5t-71 -29.5t-70.5 29.5t-29.5 70.5z" />
    <glyph glyph-name="Igrave" unicode="&#xcc;" horiz-adv-x="724" 
d="M45 1397h635v-60q-125 0 -173 -36.5t-48 -129.5v-935q0 -96 45 -136.5t176 -40.5v-59h-635v59q133 0 178 37t45 133v942q0 90 -43 128t-180 38v60zM217 1785q0 19 10.5 25.5t40.5 6.5h49q51 0 72 -13.5t37 -56.5l88 -234h-72l-202 230q-23 23 -23 42z" />
    <glyph glyph-name="Iacute" unicode="&#xcd;" horiz-adv-x="724" 
d="M45 1397h635v-60q-125 0 -173 -36.5t-48 -129.5v-935q0 -96 45 -136.5t176 -40.5v-59h-635v59q133 0 178 37t45 133v942q0 90 -43 128t-180 38v60zM410 1817h49q31 0 41 -6.5t10 -25.5t-23 -42l-202 -230h-72l88 234q16 43 36.5 56.5t72.5 13.5z" />
    <glyph glyph-name="Icircumflex" unicode="&#xce;" horiz-adv-x="724" 
d="M45 1397h635v-60q-125 0 -173 -36.5t-48 -129.5v-935q0 -96 45 -136.5t176 -40.5v-59h-635v59q133 0 178 37t45 133v942q0 90 -43 128t-180 38v60zM342 1702l-158 -191h-90l174 304h187l176 -304h-94z" />
    <glyph glyph-name="Idieresis" unicode="&#xcf;" horiz-adv-x="724" 
d="M45 1397h635v-60q-125 0 -173 -36.5t-48 -129.5v-935q0 -96 45 -136.5t176 -40.5v-59h-635v59q133 0 178 37t45 133v942q0 90 -43 128t-180 38v60zM479 1663q0 41 30 70.5t71 29.5t70.5 -29.5t29.5 -70.5t-29.5 -70.5t-70.5 -29.5t-71 29.5t-30 70.5zM45 1663
q0 41 29.5 70.5t70.5 29.5t71 -29.5t30 -70.5t-30 -70.5t-71 -29.5t-70.5 29.5t-29.5 70.5z" />
    <glyph glyph-name="Eth" unicode="&#xd0;" horiz-adv-x="1728" 
d="M475 1337v-608h428v-59h-428v-391q0 -119 61.5 -169.5t384.5 -50.5t397.5 237.5t74.5 373.5t-45 262.5t-185 265.5t-463 139h-225zM55 1397h779q184 0 330.5 -54.5t295 -198.5t148.5 -440t-215 -511q-96 -96 -239.5 -144.5t-393.5 -48.5h-705v59q141 0 185.5 40t44.5 141
v430h-226v59h226v426q0 98 -44 140t-186 42v60z" />
    <glyph glyph-name="Ntilde" unicode="&#xd1;" horiz-adv-x="1728" 
d="M373 287q0 -214 252 -228v-59h-574v59q117 0 180.5 61.5t63.5 166.5v860l-80 82q-59 63 -98 83.5t-99 24.5v60h304l1069 -1100v793q0 243 -248 247v60h547v-60q-129 -6 -175.5 -80.5t-46.5 -238.5v-789q0 -37 16 -130t15 -117h-108q-20 35 -69.5 96t-90.5 102l-858 893
v-786zM1020 1686q68 0 113 106l55 -31q-18 -109 -77 -167t-103 -58t-81.5 15t-109.5 53t-106 38q-33 0 -56.5 -22.5t-54.5 -81.5l-57 25q14 96 66.5 161.5t115.5 65.5t139 -40t104.5 -52t51.5 -12z" />
    <glyph glyph-name="Ograve" unicode="&#xd2;" horiz-adv-x="1665" 
d="M438.5 324.5q102.5 -158.5 199 -219t204.5 -60.5q215 0 351 148t136 417q0 320 -144.5 531t-381.5 211q-179 0 -323 -142t-144 -434q0 -293 102.5 -451.5zM121 691q0 318 204 524t513 206q168 0 301 -61.5t223 -164.5t136 -233.5t46 -258.5t-41 -253.5t-129 -234.5
t-226 -174.5t-301 -65.5t-291 49.5t-226.5 142.5t-153.5 228t-55 296zM686 1785q0 19 10.5 25.5t40.5 6.5h49q51 0 72 -13.5t37 -56.5l88 -234h-72l-202 230q-23 23 -23 42z" />
    <glyph glyph-name="Oacute" unicode="&#xd3;" horiz-adv-x="1665" 
d="M438.5 324.5q102.5 -158.5 199 -219t204.5 -60.5q215 0 351 148t136 417q0 320 -144.5 531t-381.5 211q-179 0 -323 -142t-144 -434q0 -293 102.5 -451.5zM121 691q0 318 204 524t513 206q168 0 301 -61.5t223 -164.5t136 -233.5t46 -258.5t-41 -253.5t-129 -234.5
t-226 -174.5t-301 -65.5t-291 49.5t-226.5 142.5t-153.5 228t-55 296zM879 1817h49q31 0 41 -6.5t10 -25.5t-23 -42l-202 -230h-72l88 234q16 43 36.5 56.5t72.5 13.5z" />
    <glyph glyph-name="Ocircumflex" unicode="&#xd4;" horiz-adv-x="1665" 
d="M438.5 324.5q102.5 -158.5 199 -219t204.5 -60.5q215 0 351 148t136 417q0 320 -144.5 531t-381.5 211q-179 0 -323 -142t-144 -434q0 -293 102.5 -451.5zM121 691q0 318 204 524t513 206q168 0 301 -61.5t223 -164.5t136 -233.5t46 -258.5t-41 -253.5t-129 -234.5
t-226 -174.5t-301 -65.5t-291 49.5t-226.5 142.5t-153.5 228t-55 296zM811 1702l-158 -191h-90l174 304h187l176 -304h-94z" />
    <glyph glyph-name="Otilde" unicode="&#xd5;" horiz-adv-x="1665" 
d="M438.5 324.5q102.5 -158.5 199 -219t204.5 -60.5q215 0 351 148t136 417q0 320 -144.5 531t-381.5 211q-179 0 -323 -142t-144 -434q0 -293 102.5 -451.5zM121 691q0 318 204 524t513 206q168 0 301 -61.5t223 -164.5t136 -233.5t46 -258.5t-41 -253.5t-129 -234.5
t-226 -174.5t-301 -65.5t-291 49.5t-226.5 142.5t-153.5 228t-55 296zM987 1686q68 0 113 106l55 -31q-18 -109 -76.5 -167t-102.5 -58t-82 15t-110 53t-106 38q-33 0 -56.5 -22.5t-54.5 -81.5l-57 25q14 96 66.5 161.5t115.5 65.5t161 -52q100 -52 134 -52z" />
    <glyph glyph-name="Odieresis" unicode="&#xd6;" horiz-adv-x="1665" 
d="M438.5 324.5q102.5 -158.5 199 -219t204.5 -60.5q215 0 351 148t136 417q0 320 -144.5 531t-381.5 211q-179 0 -323 -142t-144 -434q0 -293 102.5 -451.5zM121 691q0 318 204 524t513 206q168 0 301 -61.5t223 -164.5t136 -233.5t46 -258.5t-41 -253.5t-129 -234.5
t-226 -174.5t-301 -65.5t-291 49.5t-226.5 142.5t-153.5 228t-55 296zM948 1663q0 41 30 70.5t71 29.5t70.5 -29.5t29.5 -70.5t-29.5 -70.5t-70.5 -29.5t-71 29.5t-30 70.5zM514 1663q0 41 29.5 70.5t70.5 29.5t71 -29.5t30 -70.5t-30 -70.5t-71 -29.5t-70.5 29.5
t-29.5 70.5z" />
    <glyph glyph-name="multiply" unicode="&#xd7;" horiz-adv-x="1368" 
d="M195 952l75 76l414 -414l416 416l76 -76l-416 -415l416 -416l-76 -76l-416 416l-414 -414l-75 76l413 414z" />
    <glyph glyph-name="Oslash" unicode="&#xd8;" horiz-adv-x="1665" 
d="M480 1210q-144 -142 -144 -417q0 -276 113 -480l737 826q-146 213 -383 213q-179 0 -323 -142zM324 174q-203 211 -203 523t204 518t513 206q256 0 456 -159l150 168l47 -41l-152 -170q205 -216 205 -523q0 -270 -129 -430t-267 -225.5t-303 -65.5t-283 47.5t-193 110.5
l-146 -162l-45 39zM1329 610q0 141 -31.5 272t-78.5 201l-740 -825q154 -213 366 -213t348 148t136 417z" />
    <glyph glyph-name="Ugrave" unicode="&#xd9;" horiz-adv-x="1642" 
d="M1405 565q0 -590 -586 -590q-288 0 -437 131.5t-149 327.5v711q0 104 -37.5 148t-172.5 44v60h632v-60q-141 0 -186 -37.5t-45 -123.5v-713q0 -184 113.5 -292t326.5 -108t341 128t128 401v471q0 143 -49 207.5t-186 66.5v60h518v-60q-119 -14 -165 -62t-46 -192v-518z
M727 1817h49q51 0 71.5 -13.5t37.5 -56.5l88 -234h-72l-203 230q-22 23 -22 42t10 25.5t41 6.5z" />
    <glyph glyph-name="Uacute" unicode="&#xda;" horiz-adv-x="1642" 
d="M1405 565q0 -590 -586 -590q-288 0 -437 131.5t-149 327.5v711q0 104 -37.5 148t-172.5 44v60h632v-60q-141 0 -186 -37.5t-45 -123.5v-713q0 -184 113.5 -292t326.5 -108t341 128t128 401v471q0 143 -49 207.5t-186 66.5v60h518v-60q-119 -14 -165 -62t-46 -192v-518z
M868 1817h50q31 0 41 -6.5t10 -25.5t-23 -42l-203 -230h-71l88 234q16 43 36.5 56.5t71.5 13.5z" />
    <glyph glyph-name="Ucircumflex" unicode="&#xdb;" horiz-adv-x="1642" 
d="M1405 565q0 -590 -586 -590q-288 0 -437 131.5t-149 327.5v711q0 104 -37.5 148t-172.5 44v60h632v-60q-141 0 -186 -37.5t-45 -123.5v-713q0 -184 113.5 -292t326.5 -108t341 128t128 401v471q0 143 -49 207.5t-186 66.5v60h518v-60q-119 -14 -165 -62t-46 -192v-518z
M801 1702l-158 -191h-90l174 304h186l177 -304h-95z" />
    <glyph glyph-name="Udieresis" unicode="&#xdc;" horiz-adv-x="1642" 
d="M1405 565q0 -590 -586 -590q-288 0 -437 131.5t-149 327.5v711q0 104 -37.5 148t-172.5 44v60h632v-60q-141 0 -186 -37.5t-45 -123.5v-713q0 -184 113.5 -292t326.5 -108t341 128t128 401v471q0 143 -49 207.5t-186 66.5v60h518v-60q-119 -14 -165 -62t-46 -192v-518z
M938 1663q0 41 29.5 70.5t70.5 29.5t71 -29.5t30 -70.5t-30 -70.5t-71 -29.5t-70.5 29.5t-29.5 70.5zM504 1663q0 41 29.5 70.5t70.5 29.5t71 -29.5t30 -70.5t-30 -70.5t-71 -29.5t-70.5 29.5t-29.5 70.5z" />
    <glyph glyph-name="Yacute" unicode="&#xdd;" 
d="M627 1337q-168 0 -168 -78q0 -37 18.5 -74.5t67.5 -111.5l270 -403l217 305q107 155 107 231q0 113 -158 131v60h498v-60q-66 0 -130.5 -56t-174.5 -218l-332 -481v-340q0 -98 42 -140.5t165 -42.5v-59h-603v59q121 0 163 40t42 143v352l-381 565q-73 108 -120 141
t-134 37v60h611v-60zM793 1817h49q31 0 41 -6.5t10 -25.5t-23 -42l-202 -230h-72l88 234q16 43 36.5 56.5t72.5 13.5z" />
    <glyph glyph-name="Thorn" unicode="&#xde;" horiz-adv-x="1280" 
d="M991 721q0 143 -93 236.5t-255 93.5h-188v-815q0 -100 46 -138.5t181 -38.5v-59h-629v59q119 0 165 37t46 137v928q0 98 -45 137t-174 39v60h621v-60q-119 0 -165 -37t-46 -137v-53h125q217 0 305 -18q160 -35 243.5 -124t83.5 -220q0 -171 -135.5 -282.5t-318.5 -111.5
t-183 49q0 37 46 37l77 -4q114 0 203.5 71t89.5 214z" />
    <glyph glyph-name="germandbls" unicode="&#xdf;" horiz-adv-x="1153" 
d="M182 848h-141v41q0 18 13.5 25.5t49.5 15.5t52 25q18 17 40 103t44 142t73 108q111 112 286 113q175 0 283.5 -84t108.5 -205t-89 -199t-193 -95v-4q158 -29 254 -145t96 -284t-99 -294.5t-229 -126.5q-76 0 -129 39t-53 85t22.5 70.5t57.5 24.5t47 -18.5t18 -56.5
t19.5 -58.5t64.5 -20.5t89 68.5t38 172.5q0 204 -99.5 343.5t-254.5 157.5v57q131 20 202.5 90t71.5 175t-67.5 174t-173.5 69t-174 -76t-68 -209v-850q0 -84 24.5 -124t96.5 -44v-53h-424v53q82 0 112.5 35t30.5 111v649z" />
    <glyph glyph-name="agrave" unicode="&#xe0;" horiz-adv-x="960" 
d="M244 242q0 -61 43 -100.5t110 -39.5q115 0 217 113v279l-243 -107q-127 -55 -127 -145zM78 197q0 97 71.5 157.5t276.5 128.5l188 64v160q0 78 -53 125t-131 47t-130 -34t-52 -69t26 -77t27 -53q0 -22 -63 -47.5t-72 -25.5q-16 0 -35.5 43t-19.5 86q0 102 105.5 171
t261.5 69t226 -61.5t70 -184.5v-475q0 -102 55 -102q35 -1 74 22l19 -51q-94 -113 -174 -113q-127 0 -134 164q-148 -164 -299 -164q-104 0 -170.5 61.5t-66.5 158.5zM385 1374h49q51 0 71.5 -13t37.5 -56l88 -234h-72l-203 229q-22 23 -22 42t10 25.5t41 6.5z" />
    <glyph glyph-name="aacute" unicode="&#xe1;" horiz-adv-x="960" 
d="M244 242q0 -61 43 -100.5t110 -39.5q115 0 217 113v279l-243 -107q-127 -55 -127 -145zM78 197q0 97 71.5 157.5t276.5 128.5l188 64v160q0 78 -53 125t-131 47t-130 -34t-52 -69t26 -77t27 -53q0 -22 -63 -47.5t-72 -25.5q-16 0 -35.5 43t-19.5 86q0 102 105.5 171
t261.5 69t226 -61.5t70 -184.5v-475q0 -102 55 -102q35 -1 74 22l19 -51q-94 -113 -174 -113q-127 0 -134 164q-148 -164 -299 -164q-104 0 -170.5 61.5t-66.5 158.5zM526 1374h49q31 0 41.5 -6t10.5 -26t-23 -42l-203 -229h-71l88 234q16 43 36.5 56t71.5 13z" />
    <glyph glyph-name="acircumflex" unicode="&#xe2;" horiz-adv-x="960" 
d="M244 242q0 -61 43 -100.5t110 -39.5q115 0 217 113v279l-243 -107q-127 -55 -127 -145zM78 197q0 97 71.5 157.5t276.5 128.5l188 64v160q0 78 -53 125t-131 47t-130 -34t-52 -69t26 -77t27 -53q0 -22 -63 -47.5t-72 -25.5q-16 0 -35.5 43t-19.5 86q0 102 105.5 171
t261.5 69t226 -61.5t70 -184.5v-475q0 -102 55 -102q35 -1 74 22l19 -51q-94 -113 -174 -113q-127 0 -134 164q-148 -164 -299 -164q-104 0 -170.5 61.5t-66.5 158.5zM459 1260l-158 -191h-90l174 303h186l177 -303h-95z" />
    <glyph glyph-name="atilde" unicode="&#xe3;" horiz-adv-x="960" 
d="M244 242q0 -61 43 -100.5t110 -39.5q115 0 217 113v279l-243 -107q-127 -55 -127 -145zM78 197q0 97 71.5 157.5t276.5 128.5l188 64v160q0 78 -53 125t-131 47t-130 -34t-52 -69t26 -77t27 -53q0 -22 -63 -47.5t-72 -25.5q-16 0 -35.5 43t-19.5 86q0 102 105.5 171
t261.5 69t226 -61.5t70 -184.5v-475q0 -102 55 -102q35 -1 74 22l19 -51q-94 -113 -174 -113q-127 0 -134 164q-148 -164 -299 -164q-104 0 -170.5 61.5t-66.5 158.5zM635 1243q68 0 113 107l55 -31q-18 -109 -76.5 -167t-102.5 -58t-82 15t-110 53t-105 38
q-34 0 -57.5 -22.5t-54.5 -81.5l-57 24q14 96 66 162t116 66t140 -40t104 -52.5t51 -12.5z" />
    <glyph glyph-name="adieresis" unicode="&#xe4;" horiz-adv-x="960" 
d="M244 242q0 -61 43 -100.5t110 -39.5q115 0 217 113v279l-243 -107q-127 -55 -127 -145zM78 197q0 97 71.5 157.5t276.5 128.5l188 64v160q0 78 -53 125t-131 47t-130 -34t-52 -69t26 -77t27 -53q0 -22 -63 -47.5t-72 -25.5q-16 0 -35.5 43t-19.5 86q0 102 105.5 171
t261.5 69t226 -61.5t70 -184.5v-475q0 -102 55 -102q35 -1 74 22l19 -51q-94 -113 -174 -113q-127 0 -134 164q-148 -164 -299 -164q-104 0 -170.5 61.5t-66.5 158.5zM596 1221q0 41 29.5 70.5t70.5 29.5t71 -29.5t30 -70.5t-30 -71t-71 -30t-70.5 30t-29.5 71zM162 1221
q0 41 29.5 70.5t70.5 29.5t70.5 -29.5t29.5 -70.5t-29.5 -71t-70.5 -30t-70.5 30t-29.5 71z" />
    <glyph glyph-name="aring" unicode="&#xe5;" horiz-adv-x="960" 
d="M244 242q0 -61 43 -100.5t110 -39.5q115 0 217 113v279l-243 -107q-127 -55 -127 -145zM78 197q0 97 71.5 157.5t276.5 128.5l188 64v160q0 78 -53 125t-131 47t-130 -34t-52 -69t26 -77t27 -53q0 -22 -63 -47.5t-72 -25.5q-16 0 -35.5 43t-19.5 86q0 102 105.5 171
t261.5 69t226 -61.5t70 -184.5v-475q0 -102 55 -102q35 -1 74 22l19 -51q-94 -113 -174 -113q-127 0 -134 164q-148 -164 -299 -164q-104 0 -170.5 61.5t-66.5 158.5zM367 1247q0 -47 32.5 -80.5t79.5 -33.5t81 33.5t34 80.5t-34 80t-81 33t-79.5 -33t-32.5 -80zM305 1247.5
q0 71.5 52.5 122.5t124 51t122.5 -51t51 -122.5t-51 -124t-122.5 -52.5t-124 52.5t-52.5 124z" />
    <glyph glyph-name="ae" unicode="&#xe6;" horiz-adv-x="1429" 
d="M389 96q106 0 225 119v260q-209 -45 -289.5 -103.5t-80.5 -127.5t40 -108.5t105 -39.5zM958 872q-80 0 -131 -64.5t-51 -186.5v-62l381 88q-14 106 -66.5 165.5t-132.5 59.5zM1049 123q156 0 276 137l35 -33q-57 -115 -159.5 -182.5t-217.5 -67.5q-207 0 -338 191
q-166 -191 -342 -191q-96 0 -160.5 62.5t-64.5 157.5q0 232 536 331v150q0 94 -47 146.5t-115 52.5t-129 -31t-61 -72t24 -77t24.5 -53t-52 -41.5t-74.5 -24.5q-23 0 -47 48t-24 90t32.5 84t124 92t248.5 50q84 0 138.5 -29.5t99.5 -101.5q106 131 247 131q279 0 334 -317
l-563 -125q0 -123 16.5 -190.5t55.5 -106.5q80 -80 203 -80z" />
    <glyph glyph-name="ccedilla" unicode="&#xe7;" horiz-adv-x="960" 
d="M84 446q0 216 142 356t352 140q137 0 224 -52t87 -138t-78 -86q-39 0 -58 21.5t-41 74.5t-56.5 87t-118.5 34q-133 0 -213 -95.5t-80 -264.5t98 -284.5t248 -115.5t272 127l41 -29q-66 -115 -165 -179.5t-210 -64.5q-33 0 -47 5l-24 -48q55 -10 86.5 -43.5t31.5 -80.5
q0 -166 -272 -166v53q156 0 156 84q-1 70 -101 76l74 131q-152 35 -250 159.5t-98 298.5z" />
    <glyph glyph-name="egrave" unicode="&#xe8;" horiz-adv-x="937" 
d="M468 883q-89 0 -156 -67.5t-85 -176.5h457q-12 115 -69.5 179.5t-146.5 64.5zM219 582q0 -224 108.5 -341.5t262.5 -117.5q78 0 133 24.5t119 88.5l35 -35q-150 -223 -367 -224q-190 0 -310 135t-120 345t119 347.5t288 137.5t277.5 -105t112.5 -255h-658zM375 1374h49
q51 0 71.5 -13t36.5 -56l89 -234h-72l-203 229q-22 23 -22 42t10 25.5t41 6.5z" />
    <glyph glyph-name="eacute" unicode="&#xe9;" horiz-adv-x="937" 
d="M468 883q-89 0 -156 -67.5t-85 -176.5h457q-12 115 -69.5 179.5t-146.5 64.5zM219 582q0 -224 108.5 -341.5t262.5 -117.5q78 0 133 24.5t119 88.5l35 -35q-150 -223 -367 -224q-190 0 -310 135t-120 345t119 347.5t288 137.5t277.5 -105t112.5 -255h-658zM516 1374h49
q31 0 41 -6t10 -26t-22 -42l-203 -229h-72l89 234q16 43 36.5 56t71.5 13z" />
    <glyph glyph-name="ecircumflex" unicode="&#xea;" horiz-adv-x="937" 
d="M468 883q-89 0 -156 -67.5t-85 -176.5h457q-12 115 -69.5 179.5t-146.5 64.5zM219 582q0 -224 108.5 -341.5t262.5 -117.5q78 0 133 24.5t119 88.5l35 -35q-150 -223 -367 -224q-190 0 -310 135t-120 345t119 347.5t288 137.5t277.5 -105t112.5 -255h-658zM449 1260
l-158 -191h-90l174 303h186l176 -303h-94z" />
    <glyph glyph-name="edieresis" unicode="&#xeb;" horiz-adv-x="937" 
d="M468 883q-89 0 -156 -67.5t-85 -176.5h457q-12 115 -69.5 179.5t-146.5 64.5zM219 582q0 -224 108.5 -341.5t262.5 -117.5q78 0 133 24.5t119 88.5l35 -35q-150 -223 -367 -224q-190 0 -310 135t-120 345t119 347.5t288 137.5t277.5 -105t112.5 -255h-658zM586 1221
q0 41 29.5 70.5t70.5 29.5t70.5 -29.5t29.5 -70.5t-29.5 -71t-70.5 -30t-70.5 30t-29.5 71zM152 1221q0 41 29.5 70.5t70.5 29.5t70.5 -29.5t29.5 -70.5t-29.5 -71t-70.5 -30t-70.5 30t-29.5 71z" />
    <glyph glyph-name="igrave" unicode="&#xec;" horiz-adv-x="532" 
d="M356 227q0 -100 29 -137t115 -37v-53h-463v53q100 0 130 35t30 148v520l-150 67v31l309 88v-715zM172 1374h49q51 0 71.5 -13t37.5 -56l88 -234h-72l-203 229q-23 23 -23 42t10.5 25.5t41.5 6.5z" />
    <glyph glyph-name="iacute" unicode="&#xed;" horiz-adv-x="532" 
d="M356 227q0 -100 29 -137t115 -37v-53h-463v53q100 0 130 35t30 148v520l-150 67v31l309 88v-715zM313 1374h49q31 0 41.5 -6t10.5 -26t-23 -42l-203 -229h-71l88 234q16 43 36.5 56t71.5 13z" />
    <glyph glyph-name="icircumflex" unicode="&#xee;" horiz-adv-x="532" 
d="M356 227q0 -100 29 -137t115 -37v-53h-463v53q100 0 130 35t30 148v520l-150 67v31l309 88v-715zM246 1260l-158 -191h-90l174 303h186l177 -303h-95z" />
    <glyph glyph-name="idieresis" unicode="&#xef;" horiz-adv-x="532" 
d="M356 227q0 -100 29 -137t115 -37v-53h-463v53q100 0 130 35t30 148v520l-150 67v31l309 88v-715zM383 1221q0 41 29.5 70.5t70.5 29.5t71 -29.5t30 -70.5t-30 -71t-71 -30t-70.5 30t-29.5 71zM-51 1221q0 41 29.5 70.5t70.5 29.5t71 -29.5t30 -70.5t-30 -71t-71 -30
t-70.5 30t-29.5 71z" />
    <glyph glyph-name="eth" unicode="&#xf0;" horiz-adv-x="1067" 
d="M991 524q0 -292 -145.5 -419.5t-324.5 -127.5t-312 139.5t-133 339.5t132 343t312 143q51 0 90 -11t92 -50l5 4q-72 169 -168 286l-203 -133l-33 45l197 131q-72 78 -164 148l72 51q111 -53 198 -127l193 127l32 -45l-180 -121q162 -150 251 -353.5t89 -369.5zM490 883
q-106 0 -180 -88t-74 -254t84.5 -335t248.5 -169q121 0 191.5 92t70.5 250t-54 275.5t-117.5 173t-169.5 55.5z" />
    <glyph glyph-name="ntilde" unicode="&#xf1;" horiz-adv-x="1153" 
d="M709 942q121 0 196.5 -78t75.5 -219v-424q0 -98 30.5 -133t118.5 -35v-53h-468v53q98 0 128.5 38t30.5 138v404q0 82 -50 135t-134 53q-152 0 -283 -123v-465q0 -104 29 -142t135 -38v-53h-477v53q90 2 122 36t32 142v523l-146 67v29l305 92v-176q176 176 355 176z
M731 1243q68 0 113 107l55 -31q-18 -109 -76.5 -167t-102.5 -58t-82 15t-110 53t-105 38q-34 0 -57.5 -22.5t-54.5 -81.5l-57 24q14 96 66.5 162t115.5 66t162 -52q98 -52 133 -53z" />
    <glyph glyph-name="ograve" unicode="&#xf2;" horiz-adv-x="1087" 
d="M244 540q0 -100 64.5 -301.5t273.5 -201.5q115 0 188.5 87t73.5 220q0 201 -82.5 370t-239.5 169q-113 0 -195.5 -80t-82.5 -263zM871.5 805.5q132.5 -136.5 132.5 -341.5t-132.5 -346t-326.5 -141t-327.5 137.5t-133.5 344.5t132 345t327.5 138t328 -136.5zM397 1342
q0 19 10.5 25.5t41.5 6.5h49q51 0 71.5 -13t36.5 -56l88 -234h-71l-203 229q-23 23 -23 42z" />
    <glyph glyph-name="oacute" unicode="&#xf3;" horiz-adv-x="1087" 
d="M244 540q0 -100 64.5 -301.5t273.5 -201.5q115 0 188.5 87t73.5 220q0 201 -82.5 370t-239.5 169q-113 0 -195.5 -80t-82.5 -263zM871.5 805.5q132.5 -136.5 132.5 -341.5t-132.5 -346t-326.5 -141t-327.5 137.5t-133.5 344.5t132 345t327.5 138t328 -136.5zM590 1374h49
q31 0 41 -6t10 -26t-22 -42l-203 -229h-72l88 234q16 43 37 56t72 13z" />
    <glyph glyph-name="ocircumflex" unicode="&#xf4;" horiz-adv-x="1087" 
d="M244 540q0 -100 64.5 -301.5t273.5 -201.5q115 0 188.5 87t73.5 220q0 201 -82.5 370t-239.5 169q-113 0 -195.5 -80t-82.5 -263zM871.5 805.5q132.5 -136.5 132.5 -341.5t-132.5 -346t-326.5 -141t-327.5 137.5t-133.5 344.5t132 345t327.5 138t328 -136.5zM522 1260
l-157 -191h-91l175 303h186l176 -303h-94z" />
    <glyph glyph-name="otilde" unicode="&#xf5;" horiz-adv-x="1087" 
d="M244 540q0 -100 64.5 -301.5t273.5 -201.5q115 0 188.5 87t73.5 220q0 201 -82.5 370t-239.5 169q-113 0 -195.5 -80t-82.5 -263zM871.5 805.5q132.5 -136.5 132.5 -341.5t-132.5 -346t-326.5 -141t-327.5 137.5t-133.5 344.5t132 345t327.5 138t328 -136.5zM698 1243
q68 0 113 107l55 -31q-18 -109 -76.5 -167t-102.5 -58t-82 15t-110 53t-105 38q-34 0 -57 -22.5t-54 -81.5l-58 24q14 96 66.5 162t115.5 66t162 -52t133 -53z" />
    <glyph glyph-name="odieresis" unicode="&#xf6;" horiz-adv-x="1087" 
d="M244 540q0 -100 64.5 -301.5t273.5 -201.5q115 0 188.5 87t73.5 220q0 201 -82.5 370t-239.5 169q-113 0 -195.5 -80t-82.5 -263zM871.5 805.5q132.5 -136.5 132.5 -341.5t-132.5 -346t-326.5 -141t-327.5 137.5t-133.5 344.5t132 345t327.5 138t328 -136.5zM659 1221
q0 41 30 70.5t71 29.5t70.5 -29.5t29.5 -70.5t-29.5 -71t-70.5 -30t-71 30t-30 71zM225 1221q0 41 30 70.5t71 29.5t70.5 -29.5t29.5 -70.5t-29.5 -71t-70.5 -30t-71 30t-30 71z" />
    <glyph glyph-name="divide" unicode="&#xf7;" horiz-adv-x="1368" 
d="M143 594h1080v-109h-1080v109zM756 950.5q0 -30.5 -20.5 -52t-51.5 -21.5t-52.5 21.5t-21.5 52t21.5 51t52.5 20.5t51.5 -20.5t20.5 -51zM756 131q0 -31 -20.5 -52.5t-51.5 -21.5t-52.5 21.5t-21.5 52.5t21.5 51.5t52.5 20.5t51.5 -20.5t20.5 -51.5z" />
    <glyph glyph-name="oslash" unicode="&#xf8;" horiz-adv-x="1087" 
d="M582 37q115 0 188.5 87t73.5 220q0 181 -72 348l-440 -487q35 -76 101.5 -122t148.5 -46zM197 135q-113 144 -113 337t132 331.5t329 138.5q80 0 157.5 -27.5t131.5 -74.5l139 155l39 -37l-140 -153q132 -138 132 -342.5t-132.5 -345t-319.5 -140.5t-316 119l-144 -157
l-39 36zM522 883q-113 0 -195.5 -80.5t-82.5 -253.5q0 -80 20 -164t43 -127l436 483q-84 142 -221 142z" />
    <glyph glyph-name="ugrave" unicode="&#xf9;" horiz-adv-x="1153" 
d="M14 922q241 3 320 16v-631q0 -203 196 -203q139 0 271 119v484q0 92 -33 125.5t-135 35.5v54l203 6l55 4q51 6 70 6v-745q0 -107 75 -107q35 0 76 4v-53l-311 -57v178q-163 -181 -363 -181q-102 0 -183 76t-81 215v457q0 76 -31.5 105.5t-128.5 37.5v54zM430 1342
q0 19 10.5 25.5t40.5 6.5h49q51 0 72 -13t37 -56l88 -234h-72l-202 229q-23 23 -23 42z" />
    <glyph glyph-name="uacute" unicode="&#xfa;" horiz-adv-x="1153" 
d="M14 922q241 3 320 16v-631q0 -203 196 -203q139 0 271 119v484q0 92 -33 125.5t-135 35.5v54l203 6l55 4q51 6 70 6v-745q0 -107 75 -107q35 0 76 4v-53l-311 -57v178q-163 -181 -363 -181q-102 0 -183 76t-81 215v457q0 76 -31.5 105.5t-128.5 37.5v54zM623 1374h49
q31 0 41 -6t10 -26t-23 -42l-202 -229h-72l88 234q16 43 36.5 56t72.5 13z" />
    <glyph glyph-name="ucircumflex" unicode="&#xfb;" horiz-adv-x="1153" 
d="M14 922q241 3 320 16v-631q0 -203 196 -203q139 0 271 119v484q0 92 -33 125.5t-135 35.5v54l203 6l55 4q51 6 70 6v-745q0 -107 75 -107q35 0 76 4v-53l-311 -57v178q-163 -181 -363 -181q-102 0 -183 76t-81 215v457q0 76 -31.5 105.5t-128.5 37.5v54zM555 1260
l-158 -191h-90l174 303h187l176 -303h-94z" />
    <glyph glyph-name="udieresis" unicode="&#xfc;" horiz-adv-x="1153" 
d="M14 922q241 3 320 16v-631q0 -203 196 -203q139 0 271 119v484q0 92 -33 125.5t-135 35.5v54l203 6l55 4q51 6 70 6v-745q0 -107 75 -107q35 0 76 4v-53l-311 -57v178q-163 -181 -363 -181q-102 0 -183 76t-81 215v457q0 76 -31.5 105.5t-128.5 37.5v54zM692 1221
q0 41 30 70.5t71 29.5t70.5 -29.5t29.5 -70.5t-29.5 -71t-70.5 -30t-71 30t-30 71zM258 1221q0 41 29.5 70.5t70.5 29.5t71 -29.5t30 -70.5t-30 -71t-71 -30t-70.5 30t-29.5 71z" />
    <glyph glyph-name="yacute" unicode="&#xfd;" horiz-adv-x="1024" 
d="M336 797q0 -50 57 -172l197 -437l129 338q69 180 69 230t-28.5 77t-95.5 35v54h337v-54q-66 -14 -100.5 -57t-83.5 -172l-287 -764q-45 -119 -115.5 -189.5t-152.5 -70.5t-127 31.5t-45 71.5t24 67t50 27t39.5 -8.5t32.5 -22.5q39 -39 91 -39t97 57.5t92 190.5l-336 737
q-39 84 -67.5 110.5t-87.5 30.5v54h434v-54q-123 -4 -123 -71zM559 1374h49q31 0 41 -6t10 -26t-22 -42l-203 -229h-72l89 234q16 43 36.5 56t71.5 13z" />
    <glyph glyph-name="thorn" unicode="&#xfe;" horiz-adv-x="1173" 
d="M599 825q-138 0 -257 -125v-342q0 -135 79 -225t207 -90t205.5 101.5t77.5 278.5t-87 289.5t-225 112.5zM182 -193v1426l-147 70v28l307 90v-651q160 172 334 172t284.5 -125.5t110.5 -322.5t-106.5 -315t-194.5 -160t-182 -42q-139 0 -246 76v-239q0 -86 38 -116
t144 -30v-53h-489v53q80 0 113.5 31.5t33.5 107.5z" />
    <glyph glyph-name="ydieresis" unicode="&#xff;" horiz-adv-x="1024" 
d="M336 797q0 -50 57 -172l197 -437l129 338q69 180 69 230t-28.5 77t-95.5 35v54h337v-54q-66 -14 -100.5 -57t-83.5 -172l-287 -764q-45 -119 -115.5 -189.5t-152.5 -70.5t-127 31.5t-45 71.5t24 67t50 27t39.5 -8.5t32.5 -22.5q39 -39 91 -39t97 57.5t92 190.5l-336 737
q-39 84 -67.5 110.5t-87.5 30.5v54h434v-54q-123 -4 -123 -71zM629 1221q0 41 29.5 70.5t70.5 29.5t70.5 -29.5t29.5 -70.5t-29.5 -71t-70.5 -30t-70.5 30t-29.5 71zM195 1221q0 41 29.5 70.5t70.5 29.5t70.5 -29.5t29.5 -70.5t-29.5 -71t-70.5 -30t-70.5 30t-29.5 71z" />
    <glyph glyph-name="OE" unicode="&#x152;" horiz-adv-x="2134" 
d="M328 807q0 -285 88 -446.5t176 -226t199 -64.5q176 0 279.5 157.5t103.5 417.5q0 193 -82.5 437.5t-350.5 244.5q-184 0 -298.5 -143.5t-114.5 -376.5zM1667 59q210 0 340 293h66l-66 -352h-1212q-152 0 -279 55.5t-265 202.5t-138 432q0 145 51 275.5t141 227.5
t206 150.5t241 53.5h1222l15 -310h-54q-52 142 -120 196t-224 54h-563v-4q172 -94 259 -229t108 -338h219q96 0 139 49t47 162h60v-502h-60q0 117 -61.5 174.5t-155.5 57.5h-188q0 -209 -93.5 -373t-259.5 -271v-4h625z" />
    <glyph glyph-name="oe" unicode="&#x153;" horiz-adv-x="1536" 
d="M260 574q0 -249 64.5 -393t199.5 -144q102 0 161.5 84t59.5 227q0 274 -72.5 404.5t-182.5 130.5t-170 -88.5t-60 -220.5zM1086 883q-81 0 -133 -64.5t-62 -179.5h389q-8 111 -60.5 177.5t-133.5 66.5zM1221 123q74 0 128 30.5t105 98.5l39 -25q-55 -115 -147.5 -182.5
t-186.5 -67.5t-178 45.5t-143 122.5q-160 -168 -332 -168t-297 143.5t-125 340.5q0 198 123.5 339.5t300.5 141.5q88 0 171 -41t144 -115q115 156 278 156t259 -98t108 -262h-579q18 -459 332 -459z" />
    <glyph glyph-name="Scaron" unicode="&#x160;" horiz-adv-x="1216" 
d="M615 1421q209 0 425 -114v-279h-69q-20 152 -117.5 238t-239.5 86t-218.5 -54.5t-76.5 -138.5q-1 -84 49 -133t113 -88t175 -97t273 -157.5t161 -308.5q0 -154 -120 -277t-382 -123q-106 0 -230.5 27t-226.5 74l-6 356h70q18 -184 120.5 -280.5t260.5 -96.5t250 65.5
t92 165.5t-69 170q-69 69 -235 160t-238.5 137t-119.5 93q-98 98 -98 225q0 158 124 254t333 96zM629 1624l157 191h91l-175 -304h-186l-176 304h94z" />
    <glyph glyph-name="scaron" unicode="&#x161;" horiz-adv-x="811" 
d="M391 -23q-148 0 -274 76v254h53q12 -123 75 -196.5t151 -73.5t140 47t52 109t-33 97q-33 34 -77 58.5t-155 77.5t-171 113q-62 61 -62 163t84 171t222 69t257 -88v-217h-53q-45 246 -209 246q-72 0 -117 -39.5t-45 -99.5t31 -91t69 -52t148 -71t177 -117t67 -175
t-91 -184.5t-239 -76.5zM426 1182l158 190h90l-174 -303h-187l-176 303h94z" />
    <glyph glyph-name="Ydieresis" unicode="&#x178;" 
d="M627 1337q-168 0 -168 -78q0 -37 18.5 -74.5t67.5 -111.5l270 -403l217 305q107 155 107 231q0 113 -158 131v60h498v-60q-66 0 -130.5 -56t-174.5 -218l-332 -481v-340q0 -98 42 -140.5t165 -42.5v-59h-603v59q121 0 163 40t42 143v352l-381 565q-73 108 -120 141
t-134 37v60h611v-60zM862 1663q0 41 30 70.5t71 29.5t70.5 -29.5t29.5 -70.5t-29.5 -70.5t-70.5 -29.5t-71 29.5t-30 70.5zM428 1663q0 41 29.5 70.5t70.5 29.5t71 -29.5t30 -70.5t-30 -70.5t-71 -29.5t-70.5 29.5t-29.5 70.5z" />
    <glyph glyph-name="florin" unicode="&#x192;" horiz-adv-x="1110" 
d="M1030 1421q68 0 107 -28.5t39 -69.5t-20.5 -61.5t-49.5 -20.5t-46.5 15.5t-37.5 43.5t-33.5 40t-34.5 12q-39 0 -67.5 -55.5t-63.5 -200.5l-53 -215h182l-12 -54h-182l-156 -649q-140 -563 -421 -563q-75 0 -114.5 27.5t-39.5 68.5t20.5 62.5t46.5 21.5t42 -13t36.5 -42
t36.5 -42t50 -13t70 52t68 191l217 899h-202l12 54h203l10 45q53 238 156.5 366.5t236.5 128.5z" />
    <glyph glyph-name="circumflex" unicode="&#x2c6;" horiz-adv-x="681" 
d="M319 1260l-157 -191h-90l174 303h186l176 -303h-94z" />
    <glyph glyph-name="tilde" unicode="&#x2dc;" horiz-adv-x="681" 
d="M496 1243q68 0 112 107l56 -31q-18 -109 -77 -167t-103 -58t-81.5 15t-109.5 53t-106 38t-57 -22.5t-54 -81.5l-58 24q14 96 66.5 162t115.5 66t140 -40q76 -40 104.5 -52.5t51.5 -12.5z" />
    <glyph glyph-name="endash" unicode="&#x2013;" horiz-adv-x="1024" 
d="M-12 578h1048v-132h-1048v132z" />
    <glyph glyph-name="emdash" unicode="&#x2014;" horiz-adv-x="2048" 
d="M-12 578h2072v-132h-2072v132z" />
    <glyph glyph-name="quoteleft" unicode="&#x2018;" horiz-adv-x="555" 
d="M430 977q0 -43 -32.5 -73t-98.5 -30t-122 64t-56 162t77 187t208 134l18 -51q-201 -74 -201 -217q0 -82 56 -82l49 4q47 0 74.5 -27.5t27.5 -70.5z" />
    <glyph glyph-name="quoteright" unicode="&#x2019;" horiz-adv-x="555" 
d="M125 1319q0 43 32.5 72.5t98.5 29.5t122 -63.5t56 -161.5t-76.5 -187.5t-207.5 -134.5l-19 52q201 74 201 217q0 82 -56 82l-49 -4q-47 0 -74.5 27.5t-27.5 70.5z" />
    <glyph glyph-name="quotesinglbase" unicode="&#x201a;" horiz-adv-x="555" 
d="M125 129q0 43 32.5 72.5t98.5 29.5t122 -63.5t56 -161.5t-76.5 -187t-207.5 -134l-19 51q201 74 201 217q0 82 -56 82l-49 -4q-47 0 -74.5 27.5t-27.5 70.5z" />
    <glyph glyph-name="quotedblleft" unicode="&#x201c;" horiz-adv-x="1067" 
d="M418 977q0 -43 -33 -73t-99 -30t-121.5 64t-55.5 162t76.5 187t207.5 134l19 -51q-201 -74 -201 -217q0 -82 55 -82l49 4q47 0 75 -27.5t28 -70.5zM920 977q0 -43 -33 -73t-99 -30t-122 64t-56 162t77 187t208 134l18 -51q-201 -74 -200 -217q0 -82 55 -82l49 4
q47 0 75 -27.5t28 -70.5z" />
    <glyph glyph-name="quotedblright" unicode="&#x201d;" horiz-adv-x="1067" 
d="M147 1319q0 43 32.5 72.5t98.5 29.5t122.5 -63.5t56.5 -161.5t-77 -187.5t-208 -134.5l-18 52q201 74 200 217q0 82 -55 82l-49 -4q-47 0 -75 27.5t-28 70.5zM649 1319q0 43 32.5 72.5t98.5 29.5t122 -63.5t56 -161.5t-76.5 -187.5t-207.5 -134.5l-19 52q201 74 201 217
q0 82 -55 82l-49 -4q-47 0 -75 27.5t-28 70.5z" />
    <glyph glyph-name="quotedblbase" unicode="&#x201e;" horiz-adv-x="1067" 
d="M117 129q0 43 32.5 72.5t98.5 29.5t122 -63.5t56 -161.5t-77 -187t-208 -134l-18 51q201 74 201 217q0 82 -56 82l-49 -4q-47 0 -74.5 27.5t-27.5 70.5zM618 129q0 43 33 72.5t99 29.5t122 -63.5t56 -161.5t-77 -187t-208 -134l-18 51q201 74 200 217q0 82 -55 82l-49 -4
q-47 0 -75 27.5t-28 70.5z" />
    <glyph glyph-name="dagger" unicode="&#x2020;" horiz-adv-x="1067" 
d="M118 713q-63 0 -63 95q0 50 14.5 74.5t52.5 24.5t81 -12l291 -53l-62 440q-8 51 -8 70q0 70 108.5 69.5t108.5 -69.5q0 -24 -6 -70l-62 -440l314 57q37 8 67 8t43 -22.5t13 -83.5q0 -88 -64 -88q-23 0 -72 10l-301 55l62 -997q4 -70 4 -109t-23.5 -55t-106.5 -16.5
t-83 65.5q0 32 4 70l64 1042l-301 -55q-45 -10 -75 -10z" />
    <glyph glyph-name="daggerdbl" unicode="&#x2021;" horiz-adv-x="1003" 
d="M133 801q-57 0 -57 92t50 92q24 0 54 -6l287 -55l-57 346q-8 48 -8 82t20 51.5t80 17.5t79 -14.5t19 -52.5t-6 -84l-57 -346l286 55q31 6 53 6q50 0 50 -92t-56 -92q-19 0 -59 10l-274 53l36 -354l-36 -354l274 55q14 2 32.5 5t26.5 3q55 0 56 -86q0 -59 -12.5 -78.5
t-49.5 -19.5q-4 0 -34.5 6t-41.5 8l-251 47l57 -344q6 -32 6 -74t-18 -59.5t-78 -17.5t-81.5 15.5t-21.5 57.5t9 78l57 344l-266 -49l-23 -4q-34 -8 -54 -8q-48 0 -48 92t57 92q10 0 27.5 -3t32.5 -5l274 -55l-37 354l37 354l-274 -53l-41 -8t-19 -2z" />
    <glyph glyph-name="bullet" unicode="&#x2022;" horiz-adv-x="575" 
d="M286.5 940q108.5 0 186.5 -78t78 -186.5t-78 -186t-186.5 -77.5t-186 77.5t-77.5 186t77.5 186.5t186 78z" />
    <glyph glyph-name="ellipsis" unicode="&#x2026;" horiz-adv-x="2048" 
d="M1706 203q47 0 80 -33t33 -80t-33 -80t-80 -33t-80 33t-33 80t33 80t80 33zM1024 203q47 0 80 -33t33 -80t-33 -80t-80 -33t-80 33t-33 80t33 80t80 33zM342 203q47 0 80 -33t33 -80t-33 -80t-80 -33t-80 33t-33 80t33 80t80 33z" />
    <glyph glyph-name="perthousand" unicode="&#x2030;" horiz-adv-x="2283" 
d="M264 -86l920 1507h86l-918 -1507h-88zM160 1007q0 -161 36.5 -231.5t120.5 -70.5t121 70.5t37 231.5t-37 231.5t-121 70.5t-120.5 -70.5t-36.5 -231.5zM45 1007.5q0 157.5 73.5 252t197.5 94.5t199 -94.5t75 -252t-75 -253t-199 -95.5t-197.5 95.5t-73.5 253zM1073 335
q0 -161 37 -231.5t121 -70.5t121 70.5t37 231.5t-37 231.5t-121 70.5t-121 -70.5t-37 -231.5zM958 336q0 158 74 252t198 94t198.5 -94t74.5 -252t-74.5 -253t-198.5 -95t-198 95t-74 253zM1808 335q0 -161 37 -231.5t121 -70.5t121 70.5t37 231.5t-37 231.5t-121 70.5
t-121 -70.5t-37 -231.5zM1694 336q0 158 73.5 252t197.5 94t198.5 -94t74.5 -252t-74.5 -253t-198.5 -95t-197.5 95t-73.5 253z" />
    <glyph glyph-name="guilsinglleft" unicode="&#x2039;" horiz-adv-x="491" 
d="M250 512l178 -459h-35l-301 459l301 459h35z" />
    <glyph glyph-name="guilsinglright" unicode="&#x203a;" horiz-adv-x="491" 
d="M242 512l-179 459h35l301 -459l-301 -459h-35z" />
    <glyph glyph-name="trademark" unicode="&#x2122;" horiz-adv-x="1855" 
d="M1921 1356v-37q-70 -2 -88 -25.5t-18 -109.5v-469q0 -82 18 -104.5t88 -26.5v-35h-420v35q76 2 96.5 24.5t20.5 106.5v495h-4l-307 -661h-31l-307 655h-4v-502q0 -76 21.5 -97t103.5 -21v-35h-297v35q72 2 91 24.5t19 106.5v469q0 88 -19.5 111.5t-90.5 23.5v37h317
l256 -543l252 543h303zM477 1296h-59v-581q0 -82 19.5 -105.5t84.5 -25.5v-35h-403v35q70 6 86 26.5t16 104.5v581h-61q-96 0 -137 -32.5t-56 -118.5h-33l13 211h745l15 -211h-35q-10 86 -52 118.5t-143 32.5z" />
    </font>
</defs>
</svg>
