<?xml version="1.0" encoding="UTF-8" standalone="no"?>
<svg width="25px" height="32px" viewBox="0 0 25 32" version="1.1" xmlns="http://www.w3.org/2000/svg" xmlns:xlink="http://www.w3.org/1999/xlink" xmlns:sketch="http://www.bohemiancoding.com/sketch/ns">
    <!-- Generator: Sketch 3.4.4 (17249) - http://www.bohemiancoding.com/sketch -->
    <title>pair</title>
    <desc>Created with Sketch.</desc>
    <defs></defs>
    <g id="Page-1" stroke="none" stroke-width="1" fill="none" fill-rule="evenodd" sketch:type="MSPage">
        <g id="pair" sketch:type="MSLayerGroup" fill="#000000">
            <g id="Capa_1" sketch:type="MSShapeGroup">
                <g id="Group">
                    <path d="M21.4287051,17.1050673 L20.339,12.077 L20.986,12.077 L20.986,6.036 L18.778,6.036 L18.778,1.283 L16.428,1.283 L16.428,6.036 L14.219,6.036 L14.219,12.077 L14.865,12.077 L14.0580581,17.1050673 C12.2860581,16.8840673 10.858,16.6411877 10.858,16.6411877 L10.84,17.9 C10.84,17.9 11.941,18.12 13.42,18.324 L10.858,29.383 L11.594,29.553 L11.381,30.522 L11.83,30.621 L11.741,31.031 L11.996,31.087 L12.086,30.677 L12.631,30.797 L12.84,29.841 L13.652,30.029 L16.336,18.621 C16.777,18.646 17.216,18.663 17.638,18.663 C18.038,18.663 18.45,18.648 18.867,18.625 L21.55,30.029 L22.359,29.841 L22.583,30.865 L23.128,30.746 L23.219,31.155 L23.473,31.098 L23.385,30.688 L23.83,30.589 L23.603,29.551 L24.343,29.379 L21.784,18.325 C23.263,18.119 24.363,17.896 24.363,17.896 L24.1565951,16.722599 C24.1565951,16.722599 23.2037051,16.8830673 21.4287051,17.1050673 Z M14.916,6.729 L20.295,6.729 L20.295,11.382 L20.18,11.382 L18.043,11.382 L17.167,11.382 L15.03,11.382 L14.916,11.382 L14.916,6.729 L14.916,6.729 Z M13.141,29.197 L11.696,28.863 L14.115,18.413 C14.604,18.473 15.12,18.527 15.641,18.57 L13.141,29.197 L13.141,29.197 Z M16.266,15.911 C15.749,15.878 15.229,15.833 14.725,15.779 L15.581,12.077 L17.167,12.077 L16.266,15.911 L16.266,15.911 Z M17.641,15.959 C17.421,15.959 17.198,15.954 16.969,15.946 L17.606,13.242 L18.244,15.949 C18.038,15.956 17.837,15.959 17.641,15.959 L17.641,15.959 Z M18.043,12.077 L19.63,12.077 L20.487,15.784 C19.982,15.839 19.463,15.884 18.946,15.916 L18.043,12.077 L18.043,12.077 Z M23.516,28.863 L22.073,29.197 L19.574,18.575 C20.095,18.533 20.61,18.478 21.1,18.419 L23.516,28.863 L23.516,28.863 Z" id="Shape"></path>
                    <path d="M0.787,30.581 L8.516,30.581 L8.516,0 L0.787,0 L0.787,30.581 L0.787,30.581 Z M1.6000061,0.840000153 L7.64000607,0.840000153 L7.64000607,2.5282624 L4.77100608,2.5282624 L4.77100608,3.53189806 L7.64000607,3.53189806 L7.64000607,4.61632173 L5.77767274,4.61632173 L5.77767274,5.61995739 L7.64000607,5.61995739 L7.64000607,7.11039259 L4.77100608,7.11039259 L4.77100608,8.11299251 L7.64000607,8.11299251 L7.64000607,9.19741617 L5.77767274,9.19741617 L5.77767274,10.2010518 L7.64000607,10.2010518 L7.64000607,11.6655934 L4.46780767,11.6655934 L4.46780767,12.6692291 L7.63880765,12.6692291 L7.63880765,13.7546885 L5.47447433,13.7546885 L5.47447433,14.7572884 L7.64000607,14.7572884 L7.64000607,16.2477236 L4.46780767,16.2477236 L4.46780767,17.2513593 L7.63880765,17.2513593 L7.63880765,18.335783 L5.47447433,18.335783 L5.47447433,19.3394186 L7.64000607,19.3394186 L7.64000607,20.7148863 L4.46780767,20.7148863 L4.46780767,21.7185219 L7.63880765,21.7185219 L7.63880765,22.8029456 L5.47447433,22.8029456 L5.47447433,23.8065812 L7.64000607,23.8065812 L7.64000607,25.2970165 L4.46780767,25.2970165 L4.46780767,26.2996164 L7.63880765,26.2996164 L7.63880765,27.3850758 L5.47447433,27.3850758 L5.47447433,28.3887114 L7.64000607,28.3887114 L7.64000607,29.7299995 L1.6000061,29.7299995 L1.6000061,0.840000153 L1.6000061,0.840000153 Z" id="Shape"></path>
                </g>
            </g>
        </g>
    </g>
</svg>