<?xml version="1.0" encoding="iso-8859-1"?>
<!-- Generator: Adobe Illustrator 16.0.0, SVG Export Plug-In . SVG Version: 6.00 Build 0)  -->
<!DOCTYPE svg PUBLIC "-//W3C//DTD SVG 1.1//EN" "http://www.w3.org/Graphics/SVG/1.1/DTD/svg11.dtd">
<svg version="1.1" id="Capa_1" xmlns="http://www.w3.org/2000/svg" xmlns:xlink="http://www.w3.org/1999/xlink" x="0px" y="0px"
	 width="31.154px" height="31.154px" viewBox="0 0 31.154 31.154" style="enable-background:new 0 0 31.154 31.154;"
	 xml:space="preserve">
<g>
	<g>
		<path d="M27.367,15.195c0,0-1.413,0.286-3.188,0.508l-0.84-3.626h0.647V6.036h-2.208V1.283h-2.35v4.753h-2.209v6.041h0.646
			l-0.837,3.621c-1.772-0.221-3.188-0.502-3.188-0.502V17.9c0,0,1.101,0.22,2.58,0.424l-2.562,11.059l0.736,0.17l-0.213,0.969
			l0.449,0.099l-0.089,0.41l0.255,0.056l0.09-0.41l0.545,0.12l0.209-0.956l0.812,0.188l2.684-11.408
			c0.441,0.025,0.88,0.042,1.302,0.042c0.4,0,0.812-0.015,1.229-0.038l2.683,11.404l0.809-0.188l0.224,1.024l0.545-0.119
			l0.091,0.409l0.254-0.057l-0.088-0.41l0.445-0.099l-0.227-1.038l0.74-0.172l-2.559-11.054c1.479-0.206,2.579-0.429,2.579-0.429
			v-2.702H27.367z M17.916,6.729h5.379v4.653H23.18h-2.137h-0.876H18.03h-0.114V6.729z M16.141,29.197l-1.445-0.334l2.419-10.45
			c0.489,0.06,1.005,0.114,1.526,0.157L16.141,29.197z M19.266,15.911c-0.517-0.033-1.037-0.078-1.541-0.132l0.856-3.702h1.586
			L19.266,15.911z M20.641,15.959c-0.22,0-0.443-0.005-0.672-0.013l0.637-2.704l0.638,2.707
			C21.038,15.956,20.837,15.959,20.641,15.959z M21.043,12.077h1.587l0.857,3.707c-0.505,0.055-1.024,0.1-1.541,0.132L21.043,12.077
			z M26.516,28.863l-1.443,0.334l-2.499-10.622c0.521-0.042,1.036-0.097,1.526-0.156L26.516,28.863z"/>
		<path d="M3.787,30.581h7.729V0H3.787V30.581z M5.132,1.344h5.04v1.63H7.778v0.969h2.394V4.99H8.618v0.969h1.554v1.439H7.778v0.968
			h2.394v1.047H8.618v0.969h1.554v1.414H7.525v0.969h2.646v1.048H8.365v0.968h1.807v1.439H7.525v0.969h2.646v1.047H8.365v0.969
			h1.807v1.328H7.525v0.969h2.646v1.047H8.365v0.969h1.807v1.439H7.525v0.968h2.646v1.048H8.365v0.969h1.807v1.295h-5.04V1.344z"/>
	</g>
</g>
<g>
</g>
<g>
</g>
<g>
</g>
<g>
</g>
<g>
</g>
<g>
</g>
<g>
</g>
<g>
</g>
<g>
</g>
<g>
</g>
<g>
</g>
<g>
</g>
<g>
</g>
<g>
</g>
<g>
</g>
</svg>
