<?xml version="1.0" encoding="utf-8"?>
<!-- Generator: Adobe Illustrator 18.0.0, SVG Export Plug-In . SVG Version: 6.00 Build 0)  -->
<!DOCTYPE svg PUBLIC "-//W3C//DTD SVG 1.1//EN" "http://www.w3.org/Graphics/SVG/1.1/DTD/svg11.dtd">
<svg version="1.1" id="Layer_1" xmlns="http://www.w3.org/2000/svg" xmlns:xlink="http://www.w3.org/1999/xlink" x="0px" y="0px"
	 viewBox="0 0 600 400" enable-background="new 0 0 600 400" xml:space="preserve">
<g>
	<path d="M106,170.3c0-0.8,0.6-1.5,1.5-1.5h22.3c9.4,0,17,7.5,17,16.8c0,7.2-4.8,13-11.6,15.8l10.7,19.8c0.5,1,0,2.3-1.3,2.3h-8.2
		c-0.7,0-1.1-0.4-1.2-0.7l-10.4-20.7h-8.7V222c0,0.8-0.7,1.5-1.5,1.5h-7.2c-0.9,0-1.5-0.7-1.5-1.5V170.3z M128.9,193.7
		c4.1,0,7.7-3.6,7.7-8c0-4.1-3.6-7.6-7.7-7.6h-12.7v15.5H128.9z"/>
	<path d="M167.4,170.3c0-0.8,0.7-1.5,1.5-1.5h7.3c0.8,0,1.5,0.7,1.5,1.5V222c0,0.8-0.7,1.5-1.5,1.5h-7.3c-0.8,0-1.5-0.7-1.5-1.5
		V170.3z"/>
	<path d="M198,215.8l2.8-4.8c0.6-1.1,2-1.1,2.7-0.5c0.4,0.2,6.7,4.8,11.8,4.8c4.1,0,7.1-2.7,7.1-6c0-4-3.4-6.7-9.9-9.4
		c-7.3-3-14.7-7.7-14.7-16.9c0-7,5.2-15,17.6-15c8,0,14.1,4.1,15.6,5.2c0.8,0.5,1,1.8,0.5,2.6l-3,4.5c-0.6,0.9-1.8,1.6-2.7,0.9
		c-0.6-0.4-6.6-4.3-10.9-4.3c-4.5,0-6.9,3-6.9,5.5c0,3.7,2.9,6.2,9.2,8.8c7.6,3,16.3,7.6,16.3,17.7c0,8-7,15.5-18,15.5
		c-9.8,0-15.6-4.6-17.2-6.1C197.7,217.5,197.3,217.1,198,215.8z"/>
	<path d="M252.9,170.3c0-0.8,0.7-1.5,1.5-1.5h7.3c0.9,0,1.5,0.7,1.5,1.5V191h25.5v-20.7c0-0.8,0.6-1.5,1.5-1.5h7.2
		c0.8,0,1.5,0.7,1.5,1.5V222c0,0.8-0.7,1.5-1.5,1.5h-7.2c-0.9,0-1.5-0.7-1.5-1.5v-21.6h-25.5V222c0,0.8-0.6,1.5-1.5,1.5h-7.3
		c-0.8,0-1.5-0.7-1.5-1.5V170.3z"/>
	<path d="M315.3,221.5l24.3-52.6c0.2-0.5,0.6-0.9,1.3-0.9h0.8c0.8,0,1.1,0.4,1.3,0.9l24.1,52.6c0.5,1-0.2,2-1.3,2h-6.8
		c-1.2,0-1.7-0.5-2.3-1.6l-3.8-8.4h-23.4l-3.8,8.4c-0.3,0.8-1,1.6-2.3,1.6h-6.8C315.4,223.5,314.8,222.5,315.3,221.5z M349,204.8
		l-7.8-17.2H341l-7.7,17.2H349z"/>
	<path d="M383.6,170.3c0-0.8,0.6-1.5,1.5-1.5h17.9c9.3,0,16.5,6.2,16.5,14.5c0,6-4.9,10.7-8.6,12.4c4.1,1.3,10.2,5.5,10.2,12.7
		c0,8.8-7.5,15.1-17,15.1H385c-0.9,0-1.5-0.7-1.5-1.5V170.3z M402,191.8c4,0,6.7-3.1,6.7-7s-2.7-6.6-6.7-6.6h-8.4v13.7H402z
		 M403.1,214.3c3.9,0,7-3,7-7.1c0-3.9-3.9-6.8-8-6.8h-8.5v13.9H403.1z"/>
	<path d="M441.1,170.3c0-0.8,0.7-1.5,1.5-1.5h7.3c0.9,0,1.5,0.7,1.5,1.5V191h25.5v-20.7c0-0.8,0.6-1.5,1.5-1.5h7.2
		c0.8,0,1.5,0.7,1.5,1.5V222c0,0.8-0.7,1.5-1.5,1.5h-7.2c-0.9,0-1.5-0.7-1.5-1.5v-21.6h-25.5V222c0,0.8-0.6,1.5-1.5,1.5h-7.3
		c-0.8,0-1.5-0.7-1.5-1.5V170.3z"/>
</g>
<g>
	<path fill="#686969" d="M106.1,237.2c0-0.2,0.2-0.4,0.4-0.4h1.8c0.2,0,0.4,0.2,0.4,0.4v12.8c0,0.2-0.2,0.4-0.4,0.4h-1.8
		c-0.2,0-0.4-0.2-0.4-0.4V237.2z"/>
	<path fill="#686969" d="M121.2,237.2c0-0.2,0.2-0.4,0.3-0.4h4.6c3.7,0,6.8,3,6.8,6.8c0,3.8-3.1,6.8-6.8,6.8h-4.6
		c-0.2,0-0.3-0.2-0.3-0.4V237.2z M125.9,248.1c2.5,0,4.4-1.9,4.4-4.4c0-2.5-1.8-4.4-4.4-4.4h-2.2v8.9H125.9z"/>
	<path fill="#686969" d="M137.8,237.2c0-0.2,0.2-0.4,0.4-0.4h7.9c0.2,0,0.4,0.2,0.4,0.4v1.6c0,0.2-0.2,0.4-0.4,0.4h-5.7v3.2h4.8
		c0.2,0,0.4,0.2,0.4,0.4v1.6c0,0.2-0.2,0.4-0.4,0.4h-4.8v3.4h5.7c0.2,0,0.4,0.2,0.4,0.4v1.6c0,0.2-0.2,0.4-0.4,0.4h-7.9
		c-0.2,0-0.4-0.2-0.4-0.4V237.2z"/>
	<path fill="#686969" d="M150.7,248.5l0.7-1.2c0.2-0.3,0.5-0.3,0.7-0.1c0.1,0.1,1.7,1.2,2.9,1.2c1,0,1.8-0.7,1.8-1.5
		c0-1-0.8-1.7-2.5-2.3c-1.8-0.7-3.6-1.9-3.6-4.2c0-1.7,1.3-3.7,4.4-3.7c2,0,3.5,1,3.9,1.3c0.2,0.1,0.3,0.4,0.1,0.6l-0.7,1.1
		c-0.2,0.2-0.4,0.4-0.7,0.2c-0.2-0.1-1.6-1.1-2.7-1.1c-1.1,0-1.7,0.7-1.7,1.4c0,0.9,0.7,1.5,2.3,2.2c1.9,0.8,4.1,1.9,4.1,4.4
		c0,2-1.7,3.8-4.5,3.8c-2.4,0-3.9-1.1-4.3-1.5C150.7,248.9,150.6,248.9,150.7,248.5z"/>
	<path fill="#686969" d="M164.4,237.2c0-0.2,0.2-0.4,0.4-0.4h1.8c0.2,0,0.4,0.2,0.4,0.4v12.8c0,0.2-0.2,0.4-0.4,0.4h-1.8
		c-0.2,0-0.4-0.2-0.4-0.4V237.2z"/>
	<path fill="#686969" d="M178.8,236.7c1.7,0,3.4,0.7,4.7,1.8c0.2,0.2,0.2,0.4,0,0.5l-1.2,1.3c-0.2,0.2-0.3,0.2-0.5,0
		c-0.8-0.7-1.9-1.1-2.9-1.1c-2.4,0-4.3,2.1-4.3,4.5c0,2.4,1.9,4.4,4.4,4.4c1.1,0,1.9-0.3,2.3-0.5V246h-1.6c-0.2,0-0.4-0.2-0.4-0.3
		v-1.5c0-0.2,0.2-0.4,0.4-0.4h3.7c0.2,0,0.3,0.2,0.3,0.4v5c0,0.2-0.1,0.3-0.2,0.3c0,0-2,1.3-4.8,1.3c-3.9,0-7-3.1-7-6.9
		S174.9,236.7,178.8,236.7z"/>
	<path fill="#686969" d="M188.9,237c0-0.2,0.2-0.3,0.4-0.3h0.5l8.1,8.6h0v-8c0-0.2,0.2-0.4,0.4-0.4h1.8c0.2,0,0.4,0.2,0.4,0.4v13.1
		c0,0.2-0.2,0.3-0.4,0.3h-0.5l-8.1-8.9h0v8.3c0,0.2-0.2,0.4-0.4,0.4h-1.8c-0.2,0-0.4-0.2-0.4-0.4V237z"/>
	<path fill="#E03C3C" d="M212.9,237.2c0-0.2,0.2-0.4,0.4-0.4h4.4c2.3,0,4.1,1.6,4.1,3.6c0,1.5-1.2,2.7-2.1,3.1
		c1,0.3,2.5,1.4,2.5,3.2c0,2.2-1.9,3.7-4.2,3.7h-4.7c-0.2,0-0.4-0.2-0.4-0.4V237.2z M217.4,242.6c1,0,1.7-0.8,1.7-1.7
		s-0.7-1.6-1.7-1.6h-2.1v3.4H217.4z M217.7,248.2c1,0,1.7-0.8,1.7-1.8c0-1-1-1.7-2-1.7h-2.1v3.5H217.7z"/>
	<path fill="#E03C3C" d="M227.1,237.2c0-0.2,0.2-0.4,0.4-0.4h7.9c0.2,0,0.4,0.2,0.4,0.4v1.6c0,0.2-0.2,0.4-0.4,0.4h-5.7v3.2h4.8
		c0.2,0,0.4,0.2,0.4,0.4v1.6c0,0.2-0.2,0.4-0.4,0.4h-4.8v3.4h5.7c0.2,0,0.4,0.2,0.4,0.4v1.6c0,0.2-0.2,0.4-0.4,0.4h-7.9
		c-0.2,0-0.4-0.2-0.4-0.4V237.2z"/>
	<path fill="#E03C3C" d="M239.1,249.9l6-13.1c0.1-0.1,0.2-0.2,0.3-0.2h0.2c0.2,0,0.3,0.1,0.3,0.2l6,13.1c0.1,0.3,0,0.5-0.3,0.5H250
		c-0.3,0-0.4-0.1-0.6-0.4l-1-2.1h-5.8l-1,2.1c-0.1,0.2-0.3,0.4-0.6,0.4h-1.7C239.2,250.4,239,250.2,239.1,249.9z M247.5,245.8
		l-1.9-4.3h-0.1l-1.9,4.3H247.5z"/>
	<path fill="#E03C3C" d="M255.7,237.2c0-0.2,0.2-0.4,0.4-0.4h1.8c0.2,0,0.4,0.2,0.4,0.4v7.9c0,1.6,1.1,2.9,2.8,2.9s2.8-1.3,2.8-2.9
		v-8c0-0.2,0.2-0.4,0.4-0.4h1.8c0.2,0,0.4,0.2,0.4,0.4v8.1c0,2.9-2.3,5.3-5.4,5.3c-3,0-5.4-2.4-5.4-5.3V237.2z"/>
	<path fill="#E03C3C" d="M274,239.2h-3c-0.2,0-0.4-0.2-0.4-0.4v-1.6c0-0.2,0.2-0.4,0.4-0.4h8.5c0.2,0,0.4,0.2,0.4,0.4v1.6
		c0,0.2-0.2,0.4-0.4,0.4h-3v10.9c0,0.2-0.2,0.4-0.4,0.4h-1.8c-0.2,0-0.4-0.2-0.4-0.4V239.2z"/>
	<path fill="#E03C3C" d="M284.2,237.2c0-0.2,0.2-0.4,0.4-0.4h1.8c0.2,0,0.4,0.2,0.4,0.4v12.8c0,0.2-0.2,0.4-0.4,0.4h-1.8
		c-0.2,0-0.4-0.2-0.4-0.4V237.2z"/>
	<path fill="#E03C3C" d="M292.6,237.2c0-0.2,0.2-0.4,0.4-0.4h7.9c0.2,0,0.4,0.2,0.4,0.4v1.6c0,0.2-0.2,0.4-0.4,0.4h-5.7v3.6h4.8
		c0.2,0,0.4,0.2,0.4,0.4v1.6c0,0.2-0.2,0.4-0.4,0.4h-4.8v4.9c0,0.2-0.2,0.4-0.4,0.4H293c-0.2,0-0.4-0.2-0.4-0.4V237.2z"/>
	<path fill="#E03C3C" d="M305.7,237.2c0-0.2,0.2-0.4,0.4-0.4h1.8c0.2,0,0.4,0.2,0.4,0.4v7.9c0,1.6,1.1,2.9,2.8,2.9
		c1.7,0,2.8-1.3,2.8-2.9v-8c0-0.2,0.2-0.4,0.4-0.4h1.8c0.2,0,0.4,0.2,0.4,0.4v8.1c0,2.9-2.3,5.3-5.4,5.3c-3,0-5.4-2.4-5.4-5.3V237.2
		z"/>
	<path fill="#E03C3C" d="M322.1,237.2c0-0.2,0.2-0.4,0.4-0.4h1.8c0.2,0,0.4,0.2,0.4,0.4v10.9h4.9c0.2,0,0.4,0.2,0.4,0.4v1.6
		c0,0.2-0.2,0.4-0.4,0.4h-7.1c-0.2,0-0.4-0.2-0.4-0.4V237.2z"/>
	<path fill="#686969" d="M340.9,237.2c0-0.2,0.2-0.4,0.4-0.4h7.9c0.2,0,0.4,0.2,0.4,0.4v1.6c0,0.2-0.2,0.4-0.4,0.4h-5.7v3.2h4.8
		c0.2,0,0.4,0.2,0.4,0.4v1.6c0,0.2-0.2,0.4-0.4,0.4h-4.8v3.4h5.7c0.2,0,0.4,0.2,0.4,0.4v1.6c0,0.2-0.2,0.4-0.4,0.4h-7.9
		c-0.2,0-0.4-0.2-0.4-0.4V237.2z"/>
	<path fill="#686969" d="M357.5,243.5l-3.9-6.1c-0.2-0.3,0-0.5,0.3-0.5h2.2c0.2,0,0.3,0.1,0.3,0.2l2.5,4.1h0l2.5-4.1
		c0-0.1,0.2-0.2,0.3-0.2h2.2c0.3,0,0.5,0.3,0.3,0.5l-3.9,6.1l4,6.4c0.2,0.3,0,0.5-0.3,0.5h-2.1c-0.2,0-0.3-0.1-0.3-0.2l-2.8-4.4
		h-0.1l-2.7,4.4c-0.1,0.1-0.2,0.2-0.3,0.2h-2.1c-0.3,0-0.5-0.3-0.3-0.5L357.5,243.5z"/>
	<path fill="#686969" d="M369.2,237.2c0-0.2,0.2-0.4,0.4-0.4h4.6c2.4,0,4.3,1.9,4.3,4.3c0,2.4-2,4.4-4.3,4.4h-2.4v4.6
		c0,0.2-0.2,0.4-0.4,0.4h-1.8c-0.2,0-0.4-0.2-0.4-0.4V237.2z M374,243.1c1.1,0,2-0.9,2-2c0-1.1-0.9-1.9-2-1.9h-2.2v3.9H374z"/>
	<path fill="#686969" d="M383,237.2c0-0.2,0.2-0.4,0.4-0.4h7.9c0.2,0,0.4,0.2,0.4,0.4v1.6c0,0.2-0.2,0.4-0.4,0.4h-5.7v3.2h4.8
		c0.2,0,0.4,0.2,0.4,0.4v1.6c0,0.2-0.2,0.4-0.4,0.4h-4.8v3.4h5.7c0.2,0,0.4,0.2,0.4,0.4v1.6c0,0.2-0.2,0.4-0.4,0.4h-7.9
		c-0.2,0-0.4-0.2-0.4-0.4V237.2z"/>
	<path fill="#686969" d="M396.7,237.2c0-0.2,0.2-0.4,0.4-0.4h5.5c2.3,0,4.2,1.9,4.2,4.2c0,1.8-1.2,3.2-2.9,3.9l2.7,4.9
		c0.1,0.3,0,0.6-0.3,0.6h-2c-0.2,0-0.3-0.1-0.3-0.2l-2.6-5.1h-2.2v4.9c0,0.2-0.2,0.4-0.4,0.4h-1.8c-0.2,0-0.4-0.2-0.4-0.4V237.2z
		 M402.4,243.1c1,0,1.9-0.9,1.9-2c0-1-0.9-1.9-1.9-1.9h-3.2v3.9H402.4z"/>
	<path fill="#686969" d="M412,237.2c0-0.2,0.2-0.4,0.4-0.4h1.8c0.2,0,0.4,0.2,0.4,0.4v12.8c0,0.2-0.2,0.4-0.4,0.4h-1.8
		c-0.2,0-0.4-0.2-0.4-0.4V237.2z"/>
	<path fill="#686969" d="M420.4,237.2c0-0.2,0.2-0.4,0.4-0.4h7.9c0.2,0,0.4,0.2,0.4,0.4v1.6c0,0.2-0.2,0.4-0.4,0.4h-5.7v3.2h4.8
		c0.2,0,0.4,0.2,0.4,0.4v1.6c0,0.2-0.2,0.4-0.4,0.4h-4.8v3.4h5.7c0.2,0,0.4,0.2,0.4,0.4v1.6c0,0.2-0.2,0.4-0.4,0.4h-7.9
		c-0.2,0-0.4-0.2-0.4-0.4V237.2z"/>
	<path fill="#686969" d="M434.1,237c0-0.2,0.2-0.3,0.4-0.3h0.5l8.1,8.6h0v-8c0-0.2,0.2-0.4,0.4-0.4h1.8c0.2,0,0.4,0.2,0.4,0.4v13.1
		c0,0.2-0.2,0.3-0.4,0.3h-0.5l-8.1-8.9h0v8.3c0,0.2-0.2,0.4-0.4,0.4h-1.8c-0.2,0-0.4-0.2-0.4-0.4V237z"/>
	<path fill="#686969" d="M457.5,236.7c2,0,3.4,0.6,4.7,1.8c0.2,0.2,0.2,0.4,0,0.5l-1.2,1.2c-0.1,0.2-0.3,0.2-0.5,0
		c-0.8-0.7-1.9-1.1-3-1.1c-2.5,0-4.3,2.1-4.3,4.5c0,2.4,1.9,4.5,4.3,4.5c1.2,0,2.2-0.4,3-1.1c0.2-0.1,0.4-0.1,0.5,0l1.2,1.2
		c0.2,0.1,0.1,0.4,0,0.5c-1.3,1.3-3,1.9-4.7,1.9c-3.9,0-7-3.1-7-7S453.6,236.7,457.5,236.7z"/>
	<path fill="#686969" d="M467,237.2c0-0.2,0.2-0.4,0.4-0.4h7.9c0.2,0,0.4,0.2,0.4,0.4v1.6c0,0.2-0.2,0.4-0.4,0.4h-5.7v3.2h4.8
		c0.2,0,0.4,0.2,0.4,0.4v1.6c0,0.2-0.2,0.4-0.4,0.4h-4.8v3.4h5.7c0.2,0,0.4,0.2,0.4,0.4v1.6c0,0.2-0.2,0.4-0.4,0.4h-7.9
		c-0.2,0-0.4-0.2-0.4-0.4V237.2z"/>
	<path fill="#686969" d="M480,248.5l0.7-1.2c0.2-0.3,0.5-0.3,0.7-0.1c0.1,0.1,1.7,1.2,2.9,1.2c1,0,1.8-0.7,1.8-1.5
		c0-1-0.8-1.7-2.5-2.3c-1.8-0.7-3.6-1.9-3.6-4.2c0-1.7,1.3-3.7,4.4-3.7c2,0,3.5,1,3.9,1.3c0.2,0.1,0.3,0.4,0.1,0.6l-0.7,1.1
		c-0.2,0.2-0.4,0.4-0.7,0.2c-0.2-0.1-1.6-1.1-2.7-1.1c-1.1,0-1.7,0.7-1.7,1.4c0,0.9,0.7,1.5,2.3,2.2c1.9,0.8,4.1,1.9,4.1,4.4
		c0,2-1.7,3.8-4.5,3.8c-2.4,0-3.9-1.1-4.3-1.5C479.9,248.9,479.8,248.9,480,248.5z"/>
</g>
<g>
	<path fill="#686969" d="M106.1,140.8c0-0.2,0.2-0.4,0.4-0.4h1.8c0.2,0,0.4,0.2,0.4,0.4v5.1h6.3v-5.1c0-0.2,0.2-0.4,0.4-0.4h1.8
		c0.2,0,0.4,0.2,0.4,0.4v12.8c0,0.2-0.2,0.4-0.4,0.4h-1.8c-0.2,0-0.4-0.2-0.4-0.4v-5.4h-6.3v5.4c0,0.2-0.2,0.4-0.4,0.4h-1.8
		c-0.2,0-0.4-0.2-0.4-0.4V140.8z"/>
	<path fill="#686969" d="M123.4,140.8c0-0.2,0.2-0.4,0.4-0.4h1.8c0.2,0,0.4,0.2,0.4,0.4v12.8c0,0.2-0.2,0.4-0.4,0.4h-1.8
		c-0.2,0-0.4-0.2-0.4-0.4V140.8z"/>
	<path fill="#686969" d="M138.4,140.8c0-0.2,0.2-0.4,0.4-0.4h1.8c0.2,0,0.4,0.2,0.4,0.4v12.8c0,0.2-0.2,0.4-0.4,0.4h-1.8
		c-0.2,0-0.4-0.2-0.4-0.4V140.8z"/>
	<path fill="#686969" d="M145.9,145.5c-0.1-0.1-0.1-0.3,0-0.4c0.2-0.1,1.3-1,1.3-2.4c0,0-0.3,0.1-0.6,0.1c-0.7,0-1.3-0.6-1.3-1.3
		c0-0.7,0.6-1.3,1.4-1.3c0.7,0,1.6,0.5,1.6,2.1c0,1.9-1.2,3.1-1.7,3.5c-0.2,0.1-0.3,0.1-0.4,0L145.9,145.5z"/>
	<path fill="#686969" d="M154.2,140.5c0-0.2,0.1-0.3,0.3-0.3h0.3c0.2,0,0.3,0.1,0.3,0.2l4.3,9.2c0,0,0,0,0.1,0l4.3-9.2
		c0.1-0.1,0.2-0.2,0.3-0.2h0.3c0.2,0,0.3,0.1,0.3,0.3l2.3,13c0.1,0.3-0.1,0.4-0.3,0.4H165c-0.2,0-0.3-0.2-0.4-0.3l-1.1-7.4
		c0,0-0.1,0-0.1,0L160,154c0,0.1-0.2,0.2-0.3,0.2h-0.3c-0.2,0-0.3-0.1-0.3-0.2l-3.4-7.6c0,0,0,0-0.1,0l-1.1,7.4
		c0,0.1-0.2,0.3-0.3,0.3h-1.7c-0.3,0-0.4-0.2-0.4-0.4L154.2,140.5z"/>
</g>
<rect x="42.3" y="105.3" width="11" height="187.4"/>
<rect x="540.2" y="105.3" width="11" height="187.4"/>
<rect x="42.3" y="102.6" width="508.9" height="11"/>
<rect x="42.3" y="281.7" width="508.9" height="11"/>
<g>
</g>
<g>
</g>
<g>
</g>
<g>
</g>
<g>
</g>
<g>
</g>
</svg>
