<?xml version="1.0" encoding="utf-8"?>
<!-- Generator: Adobe Illustrator 20.1.0, SVG Export Plug-In . SVG Version: 6.00 Build 0)  -->
<svg version="1.1" id="Layer_1" xmlns="http://www.w3.org/2000/svg" xmlns:xlink="http://www.w3.org/1999/xlink" x="0px" y="0px"
	 viewBox="0 0 118.3 24" style="enable-background:new 0 0 118.3 24;" xml:space="preserve">
<path d="M86.4,19.7c-4.2,0.2-7.8-3.1-7.9-7.4c-0.2-4.2,3.1-7.8,7.4-7.9c4.2-0.2,7.8,3.1,7.9,7.4c0,0.1,0,0.2,0,0.3
	C93.9,16.2,90.6,19.6,86.4,19.7 M86.4,0.1c-6.6-0.2-12.1,5-12.2,11.6c-0.2,6.6,5,12.1,11.6,12.2c6.6,0.2,12.1-5,12.2-11.6
	c0-0.1,0-0.2,0-0.3C98.1,5.5,92.9,0.2,86.4,0.1 M115.8,12.2c-1.4-1-3-1.8-4.7-2.3c-4.2-1.4-4.2-2.5-4.2-3c0-1.2,1.3-2.5,3.6-2.5
	c1.4,0,2.8,0.5,3.9,1.4l0.3,0.2l3.3-2.3l-0.4-0.4c-1.8-2-4.4-3.2-7.2-3.2c-2,0-4,0.7-5.6,2c-1.4,1.2-2.2,3-2.3,4.9
	c0,1.9,0.9,3.8,2.5,4.9c1.4,1,3,1.8,4.7,2.3c4.2,1.4,4.2,2.5,4.2,3c0,1.2-1.3,2.5-3.6,2.5c-1.4,0-2.8-0.5-3.9-1.4l-0.3-0.2l-3.3,2.3
	l0.4,0.4c1.8,2,4.4,3.2,7.2,3.2c2,0,4-0.7,5.6-2c1.4-1.2,2.2-3,2.3-4.9C118.3,15.2,117.4,13.3,115.8,12.2 M31.9,19.6
	c-4.2,0.2-7.8-3.1-7.9-7.4s3.1-7.8,7.4-7.9c4.2-0.2,7.8,3.1,7.9,7.4c0,0.1,0,0.2,0,0.3C39.3,16.1,36,19.5,31.9,19.6 M31.9,0
	c-6.6-0.2-12.1,5-12.2,11.6s5,12.1,11.6,12.2c6.6,0.2,12.1-5,12.2-11.6c0-0.1,0-0.2,0-0.3C43.6,5.4,38.4,0.1,31.9,0 M13.2,12.1
	c-1.4-1-3-1.8-4.7-2.3c-4.2-1.4-4.2-2.5-4.2-3c0-1.2,1.3-2.5,3.6-2.5c1.4,0,2.8,0.5,3.9,1.4L12,6l3.3-2.3L15,3.2
	C13.2,1.2,10.6,0,7.8,0c-2,0-4,0.7-5.6,2C0.8,3.2,0,5,0,6.9s0.9,3.8,2.5,4.9c1.4,1,3,1.8,4.7,2.3c4.2,1.4,4.2,2.5,4.2,3
	c0,1.2-1.3,2.5-3.6,2.5c-1.4,0-2.8-0.5-3.9-1.4L3.6,18l-3.3,2.3l0.4,0.4c1.8,2,4.4,3.2,7.2,3.2c2,0,4-0.7,5.6-2
	c1.4-1.2,2.2-3,2.3-4.9C15.7,15.1,14.8,13.3,13.2,12.1 M64.1,13.6l-14-13.4V23h4.2V10.3l14,13.4V0.9h-4.1L64.1,13.6L64.1,13.6z"/>
</svg>
