<?xml version="1.0" encoding="utf-8"?>
<!-- Generator: Adobe Illustrator 20.1.0, SVG Export Plug-In . SVG Version: 6.00 Build 0)  -->
<svg version="1.1" id="Layer_1" xmlns="http://www.w3.org/2000/svg" xmlns:xlink="http://www.w3.org/1999/xlink" x="0px" y="0px"
	 viewBox="0 0 118.8 36.3" style="enable-background:new 0 0 118.8 36.3;" xml:space="preserve">
<path d="M29,16.1c-5.7-3.5-15.1-3.8-20.5-2.1c-0.9,0.3-1.8-0.2-2-1.1l0,0c-0.3-0.9,0.2-1.8,1.1-2.1c6.2-1.9,16.6-1.6,23.2,2.4
	c0.8,0.5,1,1.5,0.6,2.3C30.8,16.3,29.9,16.6,29,16.1C29.1,16.2,29,16.1,29,16.1 M28.8,21.3c-0.4,0.6-1.2,0.9-1.8,0.5c0,0,0,0-0.1,0
	c-5.3-3.1-11.7-3.8-17.6-2.1c-0.7,0.2-1.5-0.2-1.7-0.9l0,0c-0.2-0.7,0.2-1.5,0.9-1.8c6.7-2,13.9-1.1,19.9,2.4
	C29,19.8,29.2,20.6,28.8,21.3 M26.7,26.2c-0.3,0.5-1,0.7-1.5,0.4l0,0C21,24,15.8,23.4,9.7,24.8c-0.6,0.1-1.2-0.2-1.3-0.8l0,0
	c-0.1-0.6,0.2-1.2,0.8-1.4c6.7-1.6,12.5-0.9,17.2,2C26.8,25,27,25.7,26.7,26.2 M18.6,0C8.6-0.3,0.2,7.7,0,17.7
	c-0.3,10,7.7,18.4,17.7,18.6s18.4-7.7,18.6-17.7c0-0.2,0-0.3,0-0.5C36.4,8.3,28.5,0.2,18.6,0 M49,16.8c-3.1-0.8-3.6-1.3-3.6-2.4
	c0-1,1-1.7,2.4-1.7c1.5,0.1,3,0.6,4.2,1.6h0.1c0.1,0,0.1,0,0.1-0.1l1.5-2.2c0.1-0.1,0-0.2,0-0.3c-1.6-1.4-3.7-2.1-5.9-2.1
	c-3.3,0-5.6,2-5.6,4.9c0,3.1,2,4.2,5.4,5.1c2.9,0.7,3.4,1.3,3.4,2.3c0,1.2-1,1.9-2.6,1.9c-1.8,0-3.6-0.8-4.9-2.1l-0.1-0.1
	c-0.1,0-0.1,0-0.1,0.1l-1.7,2.1c-0.1,0.1-0.1,0.2,0,0.3c1.8,1.7,4.2,2.7,6.7,2.7c3.6,0,5.8-2,5.8-5.1C54.2,19.2,52.7,17.7,49,16.8
	 M64.8,20.3c0,2.2-1.3,3.7-3.2,3.7c-2.1-0.3-3.5-2.2-3.2-4.2c0.2-1.7,1.6-3,3.2-3.2C63.5,16.6,64.8,18.1,64.8,20.3 M62.3,13.7
	c-1.5,0-2.9,0.7-3.8,1.9v-1.4c0-0.1-0.1-0.2-0.2-0.2h-2.7c-0.1,0-0.2,0.1-0.2,0.2v15.9c0,0.1,0.1,0.2,0.2,0.2l0,0h2.7
	c0.1,0,0.2-0.1,0.2-0.2l0,0v-5c0.9,1.2,2.4,1.8,3.8,1.8c2.9,0,5.8-2.3,5.8-6.6S65.1,13.7,62.3,13.7 M75.4,24.1c-2,0-3.5-1.7-3.4-3.6
	v-0.1c-0.1-1.9,1.3-3.6,3.2-3.7c0.1,0,0.1,0,0.2,0c2,0,3.5,1.7,3.5,3.6c0,0.1,0,0.1,0,0.2c0.1,1.9-1.3,3.6-3.2,3.7
	C75.6,24,75.5,24,75.4,24.1 M75.4,13.7c-3.6,0-6.6,2.9-6.7,6.5c0,3.6,2.9,6.6,6.5,6.7c3.6,0,6.6-2.9,6.7-6.5c0,0,0,0,0-0.1
	C82,16.7,79.1,13.7,75.4,13.7C75.5,13.7,75.5,13.7,75.4,13.7 M89.9,14h-3v-3.2c0-0.1-0.1-0.2-0.2-0.2l0,0H84c-0.1,0-0.2,0.1-0.2,0.2
	l0,0V14h-1.3c-0.1,0-0.2,0.1-0.2,0.2v2.4c0,0.1,0.1,0.2,0.2,0.2l0,0h1.3V23c0,2.5,1.2,3.8,3.6,3.8c0.9,0,1.8-0.2,2.6-0.7
	c0.1,0,0.1-0.1,0.1-0.2v-2.3c0-0.1,0-0.1-0.1-0.2c-0.1,0-0.1,0-0.2,0c-0.5,0.3-1,0.4-1.6,0.4c-0.6,0.1-1.2-0.3-1.3-0.9
	c0-0.1,0-0.3,0-0.4v-5.8h3c0.1,0,0.2-0.1,0.2-0.2l0,0v-2.3C90.1,14.1,90,14,89.9,14 M100.3,14v-0.4c0-1.1,0.4-1.7,1.4-1.7
	c0.5,0,1,0.1,1.5,0.3c0.1,0,0.1,0,0.2,0s0.1-0.1,0.1-0.2V9.6c0-0.1-0.1-0.2-0.1-0.2c-0.7-0.2-1.5-0.3-2.3-0.3
	c-2.5,0-3.9,1.5-3.9,4.2v0.6h-1.3c-0.1,0-0.2,0.1-0.2,0.2v2.4c0,0.1,0.1,0.2,0.2,0.2l0,0h1.3v9.6c0,0.1,0.1,0.2,0.2,0.2l0,0h2.7
	c0.1,0,0.2-0.1,0.2-0.2l0,0v-9.6h2.6l3.9,9.6c-0.4,1-0.9,1.2-1.5,1.2c-0.5,0-1.1-0.2-1.5-0.4c0,0-0.1,0-0.2,0s-0.1,0.1-0.1,0.1
	l-0.9,2.1c0,0.1,0,0.2,0.1,0.3c0.9,0.5,1.9,0.8,2.9,0.8c2,0,3.1-1,4.1-3.6l4.7-12.6c0-0.1,0-0.1,0-0.2c0-0.1-0.1-0.1-0.2-0.1h-2.8
	c-0.1,0-0.2,0.1-0.2,0.1l-2.9,8.6l-3.2-8.6c0-0.1-0.1-0.1-0.2-0.1L100.3,14L100.3,14z M94.3,14h-2.7c-0.1,0-0.2,0.1-0.2,0.2v12.2
	c0,0.1,0.1,0.2,0.2,0.2l0,0h2.7c0.1,0,0.2-0.1,0.2-0.2l0,0V14.2C94.5,14.1,94.4,14,94.3,14 M92.9,8.4c-1.1,0-2,0.9-2.1,2
	c0,1.1,0.9,2,2,2.1s2-0.9,2.1-2c0,0,0,0,0-0.1C94.9,9.3,94,8.4,92.9,8.4 M117,15.2h-0.5v0.7h0.5c0.2,0,0.4-0.1,0.4-0.3
	c0,0,0,0,0-0.1C117.4,15.3,117.2,15.2,117,15.2L117,15.2 M117.3,16.1l0.5,0.8h-0.5l-0.5-0.7h-0.4v0.7H116v-2.1h0.9
	c0.4-0.1,0.7,0.2,0.8,0.6v0.1C117.8,15.8,117.6,16,117.3,16.1 M116.9,14.1c-1,0-1.8,0.7-1.8,1.7s0.7,1.8,1.7,1.8s1.8-0.7,1.8-1.7
	c0,0,0,0,0-0.1C118.6,14.9,117.8,14.2,116.9,14.1L116.9,14.1 M116.9,17.9c-1.1,0-2-0.8-2-1.9s0.8-2,1.9-2s2,0.8,2,1.9l0,0
	C118.8,17,118,17.9,116.9,17.9L116.9,17.9"/>
</svg>
